<?xml version="1.0" encoding="UTF-8"?>
<svg width="700pt" height="700pt" version="1.1" viewBox="0 0 700 700" xmlns="http://www.w3.org/2000/svg" xmlns:xlink="http://www.w3.org/1999/xlink">
 <g>
  <path d="m438.69 269.5-54.672-50.82c-1.9688-1.8359-3.125-4.3828-3.2188-7.0742-0.089843-2.6914 0.89062-5.3086 2.7305-7.2773 1.8359-1.9648 4.3789-3.125 7.0703-3.2148 2.6914-0.09375 5.3125 0.88672 7.2773 2.7266l73.922 68.738c2.0781 1.9219 3.2617 4.625 3.2617 7.457 0 2.832-1.1836 5.5352-3.2617 7.4531l-73.922 68.742c-1.9648 1.8398-4.5859 2.8203-7.2773 2.7266-2.6914-0.089843-5.2344-1.25-7.0703-3.2188-1.8633-1.9688-2.8555-4.6016-2.7656-7.3086 0.09375-2.7109 1.2656-5.2695 3.2539-7.1094l54.672-50.82h-203c-5.8008 0-10.5-4.6992-10.5-10.5s4.6992-10.5 10.5-10.5z"/>
  <use x="70" y="665" xlink:href="#u"/>
  <use x="95.6875" y="665" xlink:href="#b"/>
  <use x="112.945312" y="665" xlink:href="#a"/>
  <use x="136.683594" y="665" xlink:href="#e"/>
  <use x="160.304688" y="665" xlink:href="#c"/>
  <use x="177.035156" y="665" xlink:href="#a"/>
  <use x="200.773438" y="665" xlink:href="#j"/>
  <use x="238.011719" y="665" xlink:href="#i"/>
  <use x="263.0625" y="665" xlink:href="#h"/>
  <use x="298.0625" y="665" xlink:href="#g"/>
  <use x="336.671875" y="665" xlink:href="#a"/>
  <use x="360.40625" y="665" xlink:href="#t"/>
  <use x="372.40625" y="665" xlink:href="#c"/>
  <use x="389.136719" y="665" xlink:href="#a"/>
  <use x="412.875" y="665" xlink:href="#f"/>
  <use x="437.789062" y="665" xlink:href="#b"/>
  <use x="455.050781" y="665" xlink:href="#e"/>
  <use x="478.667969" y="665" xlink:href="#s"/>
  <use x="499.5" y="665" xlink:href="#a"/>
  <use x="523.238281" y="665" xlink:href="#b"/>
  <use x="70" y="700" xlink:href="#r"/>
  <use x="85.226562" y="700" xlink:href="#b"/>
  <use x="102.488281" y="700" xlink:href="#d"/>
  <use x="126.53125" y="700" xlink:href="#q"/>
  <use x="175.1875" y="700" xlink:href="#c"/>
  <use x="191.917969" y="700" xlink:href="#p"/>
  <use x="216.835938" y="700" xlink:href="#a"/>
  <use x="252.757812" y="700" xlink:href="#o"/>
  <use x="282.050781" y="700" xlink:href="#d"/>
  <use x="306.097656" y="700" xlink:href="#n"/>
  <use x="331.011719" y="700" xlink:href="#f"/>
  <use x="368.117188" y="700" xlink:href="#m"/>
  <use x="393.765625" y="700" xlink:href="#b"/>
  <use x="411.027344" y="700" xlink:href="#d"/>
  <use x="435.074219" y="700" xlink:href="#l"/>
  <use x="447.070312" y="700" xlink:href="#a"/>
  <use x="470.808594" y="700" xlink:href="#k"/>
  <use x="491.554687" y="700" xlink:href="#c"/>
 </g>
</svg>
