<?xml version="1.0" encoding="UTF-8"?>
<svg width="107px" height="109px" viewBox="0 0 107 109" version="1.1" xmlns="http://www.w3.org/2000/svg" xmlns:xlink="http://www.w3.org/1999/xlink">
    <!-- Generator: Sketch 44.1 (41455) - http://www.bohemiancoding.com/sketch -->
    <title>Horeca Orders logo</title>
    <desc>Created with Sketch.</desc>
    <defs></defs>
    <g id="Page-1" stroke="none" stroke-width="1" fill="none" fill-rule="evenodd">
        <g id="HO-Website---Restaurante" transform="translate(-56.000000, -40.000000)">
            <g id="Section-1">
                <g id="Horeca-Orders-logo" transform="translate(40.000000, 40.000000)">
                    <path d="M28.4997446,12.0015874 L127.009759,12.0015874 L127.009759,12.0015874 C129.575895,12.0015874 131.65616,14.0818518 131.65616,16.6479879 C131.65616,16.9724719 131.622169,17.2960633 131.554744,17.6134649 L115.35658,93.8663607 L115.35658,93.8663607 C114.901421,96.009024 113.011604,97.5427771 110.821134,97.5472744 L12.2681374,97.7496137 L12.2681374,97.7496137 C9.7020067,97.7548822 7.61747576,95.6788933 7.61220723,93.1127626 C7.61153448,92.7850906 7.64552539,92.4582667 7.7136126,92.137746 L23.9547593,15.6825109 L23.9547593,15.6825109 C24.410662,13.5363477 26.3056927,12.0015874 28.4997446,12.0015874 Z" id="Rectangle-2" fill="#FFDC0A" transform="translate(69.634193, 54.875539) rotate(-12.000000) translate(-69.634193, -54.875539) "></path>
                    <path d="M29.5411932,51.5352911 L25.4820976,51.5352911 L30.8821444,26.1659436 L34.94124,26.1659436 L32.7304826,36.4948922 L36.9345459,36.4948922 L39.1453033,26.1659436 L43.2043989,26.1659436 L37.8043521,51.5352911 L33.7452565,51.5352911 L36.1734654,40.1190847 L31.9694021,40.1190847 L29.5411932,51.5352911 Z M47.4075928,51.8977103 C43.7834003,51.8977103 41.536401,50.0856141 41.536401,46.7875989 C41.536401,46.2077281 41.6088848,45.5916154 41.7538525,44.9392607 L44.6169646,31.5297485 C45.378045,27.7968302 47.6612863,25.8035243 50.9955434,25.8035243 C54.6197359,25.8035243 56.8667352,27.6156206 56.8667352,30.9136358 C56.8667352,31.5297485 56.7942514,32.1458612 56.6492837,32.7982159 L53.7861716,46.2077281 C52.9526073,50.0131302 50.8505757,51.8977103 47.4075928,51.8977103 Z M47.6250444,48.2735178 C48.748544,48.2735178 49.4371406,47.5124374 49.7633179,46.0265185 L52.6989139,32.1458612 C52.7713977,31.8196839 52.8076396,31.5297485 52.8076396,31.2398131 C52.8076396,30.0438296 52.155285,29.4277168 50.8143338,29.4277168 C49.6908341,29.4277168 48.9659956,30.1887973 48.6398183,31.7109581 L45.7042223,45.5916154 C45.6317385,45.9177927 45.5954966,46.2077281 45.5954966,46.4614216 C45.5954966,47.6574051 46.2840931,48.2735178 47.6250444,48.2735178 Z M59.3303168,51.5352911 L55.2712212,51.5352911 L60.671268,26.1659436 L66.5062179,26.1659436 C69.6592654,26.1659436 71.3988778,27.6518625 71.3988778,30.5149746 C71.3988778,31.0948454 71.3263939,31.7472 71.1814262,32.4720385 L70.9277328,33.704264 C70.31162,36.7485857 69.2243623,38.3069885 67.1585726,38.8506173 L67.1585726,38.8868593 C68.390798,39.2855204 69.0069107,40.3365363 69.0069107,42.0399067 C69.0069107,42.7285033 68.9344269,43.4533418 68.7532173,44.1419384 L67.8109272,48.5996952 C67.5572337,49.7956787 67.448508,50.5567591 67.448508,50.8829364 C67.448508,51.0279041 67.4847499,51.2453557 67.5209918,51.5352911 L63.570622,51.5352911 C63.5343801,51.100388 63.4981381,50.7742107 63.4981381,50.593001 C63.4981381,50.0493722 63.6068639,49.2882917 63.8243155,48.2735178 L64.8028474,43.6345514 C64.9478151,43.0184387 65.020299,42.5110518 65.020299,42.1123906 C65.020299,40.9888909 64.512912,40.6627136 63.099477,40.6627136 L61.6498,40.6627136 L59.3303168,51.5352911 Z M63.9692832,29.7901361 L62.4108804,37.0385211 L63.6068639,37.0385211 C65.2377505,37.0385211 66.2887664,36.096231 66.7236695,34.2116509 L67.1585726,32.254587 C67.2672983,31.8559258 67.3035403,31.4572646 67.3035403,31.0948454 C67.3035403,30.2250392 66.7961533,29.7901361 65.7813794,29.7901361 L63.9692832,29.7901361 Z M80.8209089,51.5352911 L69.9483314,51.5352911 L75.3483782,26.1659436 L86.2209557,26.1659436 L85.4236334,29.7901361 L78.6463934,29.7901361 L77.2329583,36.4948922 L82.5967632,36.4948922 L81.8356828,40.1190847 L76.4718779,40.1190847 L74.8047494,47.9110986 L81.5819893,47.9110986 L80.8209089,51.5352911 Z M89.4456177,51.8977103 C85.6764575,51.8977103 83.7193935,50.121856 83.7193935,46.9688085 C83.7193935,46.3889377 83.7918774,45.772825 83.9368451,45.0842284 L86.872441,31.3847808 C87.6335214,27.7968302 89.8080369,25.8035243 93.1060521,25.8035243 C96.8389704,25.8035243 98.7597924,27.6156206 98.7597924,30.6961842 C98.7597924,31.3122969 98.6873086,31.9646516 98.5423409,32.6170062 L98.1074378,34.7190379 L94.2657937,34.7190379 L94.8456645,31.9646516 C94.9181484,31.6747162 94.9543903,31.3847808 94.9543903,31.1310873 C94.9543903,30.0075876 94.3020356,29.4277168 93.0335683,29.4277168 C91.9100686,29.4277168 91.221472,30.1525553 90.8952947,31.5659904 L87.850973,45.7365831 C87.7784891,46.0265185 87.7422472,46.280212 87.7422472,46.5339054 C87.7422472,47.693647 88.3946019,48.2735178 89.6630692,48.2735178 C90.8590528,48.2735178 91.6201332,47.5849213 91.8738267,46.2077281 L92.671149,42.2573583 L96.4765511,42.2573583 L95.6429869,46.3164539 C94.8819064,50.0493722 92.8161167,51.8977103 89.4456177,51.8977103 Z M95.6783594,51.5352911 L105.209986,26.1659436 L110.718758,26.1659436 L109.450291,51.5352911 L105.391195,51.5352911 L105.753615,46.5701474 L101.259616,46.5701474 L99.5200035,51.5352911 L95.6783594,51.5352911 Z M106.877114,30.7686681 L102.491841,43.1271645 L105.971066,43.1271645 L106.877114,30.7686681 Z" id="HORECA" fill="#000000" transform="translate(68.100428, 38.850617) rotate(-12.000000) translate(-68.100428, -38.850617) "></path>
                    <path d="M32.2486012,85.6349556 C28.6244087,85.6349556 26.3774093,83.8228594 26.3774093,80.5248442 C26.3774093,79.9449734 26.4498932,79.3288607 26.5948609,78.676506 L29.4579729,65.2669938 C30.2190534,61.5340755 32.5022946,59.5407696 35.8365517,59.5407696 C39.4607442,59.5407696 41.7077436,61.3528659 41.7077436,64.6508811 C41.7077436,65.2669938 41.6352597,65.8831065 41.490292,66.5354612 L38.62718,79.9449734 C37.7936157,83.7503755 35.691584,85.6349556 32.2486012,85.6349556 Z M32.4660527,82.0107631 C33.5895524,82.0107631 34.278149,81.2496827 34.6043263,79.7637638 L37.5399222,65.8831065 C37.6124061,65.5569292 37.648648,65.2669938 37.648648,64.9770584 C37.648648,63.7810749 36.9962933,63.1649621 35.6553421,63.1649621 C34.5318424,63.1649621 33.8070039,63.9260426 33.4808266,65.4482034 L30.5452307,79.3288607 C30.4727468,79.655038 30.4365049,79.9449734 30.4365049,80.1986669 C30.4365049,81.3946504 31.1251015,82.0107631 32.4660527,82.0107631 Z M44.1713251,85.2725364 L40.1122295,85.2725364 L45.5122763,59.9031889 L51.3472263,59.9031889 C54.5002737,59.9031889 56.2398861,61.3891078 56.2398861,64.2522199 C56.2398861,64.8320907 56.1674023,65.4844453 56.0224346,66.2092838 L55.7687411,67.4415093 C55.1526284,70.485831 54.0653706,72.0442338 51.9995809,72.5878626 L51.9995809,72.6241046 C53.2318064,73.0227657 53.8479191,74.0737816 53.8479191,75.777152 C53.8479191,76.4657486 53.7754352,77.1905871 53.5942256,77.8791837 L52.6519356,82.3369405 C52.3982421,83.532924 52.2895163,84.2940044 52.2895163,84.6201817 C52.2895163,84.7651494 52.3257582,84.982601 52.3620002,85.2725364 L48.4116303,85.2725364 C48.3753884,84.8376333 48.3391465,84.511456 48.3391465,84.3302463 C48.3391465,83.7866175 48.4478723,83.025537 48.6653238,82.0107631 L49.6438558,77.3717967 C49.7888235,76.755684 49.8613073,76.2482971 49.8613073,75.8496359 C49.8613073,74.7261362 49.3539204,74.3999589 47.9404853,74.3999589 L46.4908083,74.3999589 L44.1713251,85.2725364 Z M48.8102915,63.5273814 L47.2518887,70.7757664 L48.4478723,70.7757664 C50.0787589,70.7757664 51.1297747,69.8334763 51.5646778,67.9488962 L51.9995809,65.9918323 C52.1083067,65.5931711 52.1445486,65.1945099 52.1445486,64.8320907 C52.1445486,63.9622845 51.6371617,63.5273814 50.6223878,63.5273814 L48.8102915,63.5273814 Z M61.3128863,85.2725364 L54.7893398,85.2725364 L60.1893866,59.9031889 L66.0605784,59.9031889 C69.3948355,59.9031889 71.1706899,61.5340755 71.1706899,64.4334295 C71.1706899,64.9770584 71.098206,65.629413 70.9532383,66.3180096 L68.2350939,79.1476511 C67.3652877,83.3154724 65.2270142,85.2725364 61.3128863,85.2725364 Z M63.4874018,63.5273814 L59.6457577,81.6483439 L61.421612,81.6483439 C62.8350471,81.6483439 63.7410952,80.7785377 64.1397564,79.0389253 L66.9666266,65.8468646 C67.0391104,65.4482034 67.0753523,65.1220261 67.0753523,64.8683326 C67.0753523,63.9622845 66.5679654,63.5273814 65.5531915,63.5273814 L63.4874018,63.5273814 Z M80.4839952,85.2725364 L69.6114177,85.2725364 L75.0114645,59.9031889 L85.884042,59.9031889 L85.0867197,63.5273814 L78.3094797,63.5273814 L76.8960446,70.2321375 L82.2598495,70.2321375 L81.4987691,73.85633 L76.1349642,73.85633 L74.4678357,81.6483439 L81.2450756,81.6483439 L80.4839952,85.2725364 Z M86.680495,85.2725364 L82.6213994,85.2725364 L88.0214463,59.9031889 L93.8563962,59.9031889 C97.0094436,59.9031889 98.749056,61.3891078 98.749056,64.2522199 C98.749056,64.8320907 98.6765722,65.4844453 98.5316045,66.2092838 L98.277911,67.4415093 C97.6617983,70.485831 96.5745405,72.0442338 94.5087508,72.5878626 L94.5087508,72.6241046 C95.7409763,73.0227657 96.357089,74.0737816 96.357089,75.777152 C96.357089,76.4657486 96.2846051,77.1905871 96.1033955,77.8791837 L95.1611055,82.3369405 C94.907412,83.532924 94.7986862,84.2940044 94.7986862,84.6201817 C94.7986862,84.7651494 94.8349281,84.982601 94.8711701,85.2725364 L90.9208002,85.2725364 C90.8845583,84.8376333 90.8483164,84.511456 90.8483164,84.3302463 C90.8483164,83.7866175 90.9570422,83.025537 91.1744937,82.0107631 L92.1530257,77.3717967 C92.2979934,76.755684 92.3704772,76.2482971 92.3704772,75.8496359 C92.3704772,74.7261362 91.8630903,74.3999589 90.4496552,74.3999589 L88.9999782,74.3999589 L86.680495,85.2725364 Z M91.3194614,63.5273814 L89.7610586,70.7757664 L90.9570422,70.7757664 C92.5879288,70.7757664 93.6389446,69.8334763 94.0738477,67.9488962 L94.5087508,65.9918323 C94.6174766,65.5931711 94.6537185,65.1945099 94.6537185,64.8320907 C94.6537185,63.9622845 94.1463316,63.5273814 93.1315577,63.5273814 L91.3194614,63.5273814 Z M103.13346,85.6349556 C99.4730252,85.6349556 97.6609289,84.0765529 97.6609289,80.9235054 C97.6609289,80.1986669 97.7334128,79.4375865 97.9146224,78.676506 L98.095832,77.8066998 L101.901234,77.8066998 L101.611299,79.3651026 C101.538815,79.7275219 101.502573,80.0536992 101.502573,80.3436346 C101.502573,81.4671343 102.118686,82.0107631 103.387153,82.0107631 C105.01804,82.0107631 105.851604,80.8147796 105.851604,78.4590545 C105.851604,76.9731356 105.126765,75.3422489 103.640847,73.6388785 C101.647541,71.3918791 100.632767,69.1086378 100.632767,66.8253966 C100.632767,64.687123 101.212638,62.9475106 102.408621,61.6065594 C103.604605,60.2293662 105.235491,59.5407696 107.265039,59.5407696 C110.889232,59.5407696 112.701328,61.0991724 112.701328,64.215978 C112.701328,64.8320907 112.592602,65.5931711 112.411392,66.4992192 L112.302667,66.9703643 L108.497265,66.9703643 L108.714716,65.8831065 C108.7872,65.4844453 108.823442,65.1220261 108.823442,64.7958488 C108.823442,63.708591 108.207329,63.1649621 107.011346,63.1649621 C105.380459,63.1649621 104.65562,64.6146391 104.65562,66.4629773 C104.65562,67.8764124 105.380459,69.4710571 106.866378,71.1744276 C108.859684,73.5301527 109.874458,75.8496359 109.874458,78.1328772 C109.874458,80.3436346 109.258345,82.1557308 108.062361,83.5691659 C106.866378,84.9463591 105.235491,85.6349556 103.13346,85.6349556 Z" id="ORDERS" fill="#000000" transform="translate(69.539369, 72.587863) rotate(-12.000000) translate(-69.539369, -72.587863) "></path>
                </g>
            </g>
        </g>
    </g>
</svg>