<?xml version="1.0" encoding="UTF-8"?>
<svg width="107px" height="109px" viewBox="0 0 107 109" version="1.1" xmlns="http://www.w3.org/2000/svg" xmlns:xlink="http://www.w3.org/1999/xlink">
    <!-- Generator: Sketch 44.1 (41455) - http://www.bohemiancoding.com/sketch -->
    <title>Horeca Orders logo white</title>
    <desc>Created with Sketch.</desc>
    <defs></defs>
    <g id="Page-1" stroke="none" stroke-width="1" fill="none" fill-rule="evenodd">
        <g id="HO-Website---Home" transform="translate(-56.000000, -40.000000)">
            <g id="Horeca-Orders-logo-white" transform="translate(40.000000, 40.000000)">
                <path d="M28.4997446,12.0015874 L127.009759,12.0015874 L127.009759,12.0015874 C129.575895,12.0015874 131.65616,14.0818518 131.65616,16.6479879 C131.65616,16.9724719 131.622169,17.2960634 131.554744,17.613465 L115.35658,93.8663607 L115.35658,93.8663607 C114.901421,96.009024 113.011604,97.5427771 110.821134,97.5472744 L12.2681375,97.7496137 L12.2681375,97.7496137 C9.70200675,97.7548822 7.61747577,95.6788932 7.61220724,93.1127625 C7.6115345,92.7850905 7.64552541,92.4582666 7.71361262,92.137746 L23.9547593,15.6825109 L23.9547593,15.6825109 C24.410662,13.5363477 26.3056927,12.0015874 28.4997446,12.0015874 Z" id="Rectangle-2" fill="#FFFFFF" transform="translate(69.634193, 54.875539) rotate(-12.000000) translate(-69.634193, -54.875539) "></path>
                <path d="M29.5411926,51.5352912 L25.4820969,51.5352912 L30.8821438,26.1659433 L34.9412395,26.1659433 L32.730482,36.4948921 L36.9345454,36.4948921 L39.1453028,26.1659433 L43.2043985,26.1659433 L37.8043516,51.5352912 L33.7452559,51.5352912 L36.1734649,40.1190846 L31.9694016,40.1190846 L29.5411926,51.5352912 Z M47.4075925,51.8977104 C43.7833999,51.8977104 41.5364006,50.0856141 41.5364006,46.7875989 C41.5364006,46.2077281 41.6088844,45.5916154 41.7538521,44.9392607 L44.6169642,31.5297483 C45.3780447,27.7968299 47.661286,25.803524 50.9955431,25.803524 C54.6197357,25.803524 56.8667351,27.6156203 56.8667351,30.9136355 C56.8667351,31.5297483 56.7942512,32.145861 56.6492835,32.7982157 L53.7861714,46.2077281 C52.9526071,50.0131303 50.8505754,51.8977104 47.4075925,51.8977104 Z M47.625044,48.2735179 C48.7485437,48.2735179 49.4371403,47.5124374 49.7633177,46.0265185 L52.6989136,32.145861 C52.7713975,31.8196837 52.8076394,31.5297483 52.8076394,31.2398129 C52.8076394,30.0438293 52.1552847,29.4277166 50.8143335,29.4277166 C49.6908338,29.4277166 48.9659953,30.188797 48.639818,31.7109579 L45.704222,45.5916154 C45.6317381,45.9177927 45.5954962,46.2077281 45.5954962,46.4614216 C45.5954962,47.6574051 46.2840928,48.2735179 47.625044,48.2735179 Z M59.3303166,51.5352912 L55.271221,51.5352912 L60.6712679,26.1659433 L66.5062179,26.1659433 C69.6592654,26.1659433 71.3988778,27.6518622 71.3988778,30.5149743 C71.3988778,31.0948452 71.326394,31.7471998 71.1814263,32.4720383 L70.9277328,33.7042638 C70.3116201,36.7485855 69.2243623,38.3069883 67.1585725,38.8506172 L67.1585725,38.8868591 C68.390798,39.2855203 69.0069107,40.3365362 69.0069107,42.0399067 C69.0069107,42.7285032 68.9344269,43.4533418 68.7532173,44.1419383 L67.8109272,48.5996952 C67.5572337,49.7956787 67.4485079,50.5567592 67.4485079,50.8829365 C67.4485079,51.0279042 67.4847499,51.2453557 67.5209918,51.5352912 L63.5706219,51.5352912 C63.53438,51.100388 63.4981381,50.7742107 63.4981381,50.5930011 C63.4981381,50.0493722 63.6068638,49.2882918 63.8243154,48.2735179 L64.8028474,43.6345514 C64.9478151,43.0184387 65.0202989,42.5110517 65.0202989,42.1123905 C65.0202989,40.9888908 64.512912,40.6627135 63.0994769,40.6627135 L61.6497999,40.6627135 L59.3303166,51.5352912 Z M63.9692831,29.7901358 L62.4108803,37.0385209 L63.6068638,37.0385209 C65.2377505,37.0385209 66.2887663,36.0962309 66.7236694,34.2116507 L67.1585725,32.2545868 C67.2672983,31.8559256 67.3035402,31.4572644 67.3035402,31.0948452 C67.3035402,30.2250389 66.7961533,29.7901358 65.7813794,29.7901358 L63.9692831,29.7901358 Z M80.8209091,51.5352912 L69.9483314,51.5352912 L75.3483783,26.1659433 L86.220956,26.1659433 L85.4236336,29.7901358 L78.6463936,29.7901358 L77.2329585,36.4948921 L82.5967634,36.4948921 L81.835683,40.1190846 L76.471878,40.1190846 L74.8047495,47.9110986 L81.5819895,47.9110986 L80.8209091,51.5352912 Z M89.445618,51.8977104 C85.6764577,51.8977104 83.7193938,50.1218561 83.7193938,46.9688085 C83.7193938,46.3889377 83.7918776,45.772825 83.9368453,45.0842284 L86.8724413,31.3847806 C87.6335217,27.7968299 89.8080373,25.803524 93.1060525,25.803524 C96.8389708,25.803524 98.7597929,27.6156203 98.7597929,30.696184 C98.7597929,31.3122967 98.687309,31.9646514 98.5423413,32.617006 L98.1074382,34.7190377 L94.2657941,34.7190377 L94.8456649,31.9646514 C94.9181488,31.674716 94.9543907,31.3847806 94.9543907,31.1310871 C94.9543907,30.0075874 94.302036,29.4277166 93.0335686,29.4277166 C91.9100689,29.4277166 91.2214724,30.1525551 90.895295,31.5659902 L87.8509733,45.7365831 C87.7784894,46.0265185 87.7422475,46.2802119 87.7422475,46.5339054 C87.7422475,47.693647 88.3946022,48.2735179 89.6630696,48.2735179 C90.8590531,48.2735179 91.6201335,47.5849213 91.873827,46.2077281 L92.6711494,42.2573582 L96.4765516,42.2573582 L95.6429873,46.3164539 C94.8819068,50.0493722 92.8161171,51.8977104 89.445618,51.8977104 Z M95.6783598,51.5352912 L105.209986,26.1659433 L110.718759,26.1659433 L109.450292,51.5352912 L105.391196,51.5352912 L105.753615,46.5701474 L101.259616,46.5701474 L99.5200039,51.5352912 L95.6783598,51.5352912 Z M106.877115,30.7686678 L102.491842,43.1271644 L105.971067,43.1271644 L106.877115,30.7686678 Z" id="HORECA" fill="#485696" transform="translate(68.100428, 38.850617) rotate(-12.000000) translate(-68.100428, -38.850617) "></path>
                <path d="M32.2486006,85.6349558 C28.6244081,85.6349558 26.3774087,83.8228596 26.3774087,80.5248443 C26.3774087,79.9449735 26.4498925,79.3288608 26.5948602,78.6765061 L29.4579724,65.2669937 C30.2190528,61.5340754 32.5022941,59.5407695 35.8365512,59.5407695 C39.4607438,59.5407695 41.7077432,61.3528657 41.7077432,64.650881 C41.7077432,65.2669937 41.6352593,65.8831064 41.4902916,66.5354611 L38.6271795,79.9449735 C37.7936152,83.7503757 35.6915835,85.6349558 32.2486006,85.6349558 Z M32.4660522,82.0107633 C33.5895519,82.0107633 34.2781485,81.2496829 34.6043258,79.7637639 L37.5399217,65.8831064 C37.6124056,65.5569291 37.6486475,65.2669937 37.6486475,64.9770583 C37.6486475,63.7810747 36.9962929,63.164962 35.6553416,63.164962 C34.5318419,63.164962 33.8070034,63.9260425 33.4808261,65.4482033 L30.5452301,79.3288608 C30.4727463,79.6550381 30.4365043,79.9449735 30.4365043,80.198667 C30.4365043,81.3946506 31.1251009,82.0107633 32.4660522,82.0107633 Z M44.1713248,85.2725366 L40.1122291,85.2725366 L45.512276,59.9031887 L51.347226,59.9031887 C54.5002735,59.9031887 56.239886,61.3891077 56.239886,64.2522198 C56.239886,64.8320906 56.1674021,65.4844452 56.0224344,66.2092838 L55.7687409,67.4415092 C55.1526282,70.485831 54.0653704,72.0442338 51.9995807,72.5878627 L51.9995807,72.6241046 C53.2318061,73.0227658 53.8479189,74.0737816 53.8479189,75.7771521 C53.8479189,76.4657487 53.775435,77.1905872 53.5942254,77.8791838 L52.6519353,82.3369406 C52.3982418,83.5329242 52.2895161,84.2940046 52.2895161,84.6201819 C52.2895161,84.7651496 52.325758,84.9826012 52.3619999,85.2725366 L48.41163,85.2725366 C48.3753881,84.8376335 48.3391462,84.5114562 48.3391462,84.3302465 C48.3391462,83.7866176 48.447872,83.0255372 48.6653235,82.0107633 L49.6438555,77.3717968 C49.7888232,76.7556841 49.8613071,76.2482971 49.8613071,75.849636 C49.8613071,74.7261363 49.3539201,74.3999589 47.940485,74.3999589 L46.490808,74.3999589 L44.1713248,85.2725366 Z M48.8102912,63.5273813 L47.2518884,70.7757664 L48.447872,70.7757664 C50.0787586,70.7757664 51.1297745,69.8334763 51.5646776,67.9488962 L51.9995807,65.9918322 C52.1083064,65.593171 52.1445484,65.1945098 52.1445484,64.8320906 C52.1445484,63.9622844 51.6371614,63.5273813 50.6223875,63.5273813 L48.8102912,63.5273813 Z M61.3128862,85.2725366 L54.7893396,85.2725366 L60.1893865,59.9031887 L66.0605784,59.9031887 C69.3948356,59.9031887 71.1706899,61.5340754 71.1706899,64.4334294 C71.1706899,64.9770583 71.0982061,65.629413 70.9532384,66.3180095 L68.2350939,79.1476512 C67.3652877,83.3154726 65.2270141,85.2725366 61.3128862,85.2725366 Z M63.4874017,63.5273813 L59.6457576,81.648344 L61.4216119,81.648344 C62.835047,81.648344 63.7410952,80.7785378 64.1397564,79.0389254 L66.9666265,65.8468645 C67.0391104,65.4482033 67.0753523,65.122026 67.0753523,64.8683325 C67.0753523,63.9622844 66.5679654,63.5273813 65.5531914,63.5273813 L63.4874017,63.5273813 Z M80.4839954,85.2725366 L69.6114177,85.2725366 L75.0114646,59.9031887 L85.8840423,59.9031887 L85.0867199,63.5273813 L78.3094799,63.5273813 L76.8960448,70.2321375 L82.2598497,70.2321375 L81.4987693,73.85633 L76.1349643,73.85633 L74.4678358,81.648344 L81.2450758,81.648344 L80.4839954,85.2725366 Z M86.6804953,85.2725366 L82.6213996,85.2725366 L88.0214465,59.9031887 L93.8563965,59.9031887 C97.0094441,59.9031887 98.7490565,61.3891077 98.7490565,64.2522198 C98.7490565,64.8320906 98.6765726,65.4844452 98.5316049,66.2092838 L98.2779115,67.4415092 C97.6617987,70.485831 96.574541,72.0442338 94.5087512,72.5878627 L94.5087512,72.6241046 C95.7409767,73.0227658 96.3570894,74.0737816 96.3570894,75.7771521 C96.3570894,76.4657487 96.2846056,77.1905872 96.1033959,77.8791838 L95.1611059,82.3369406 C94.9074124,83.5329242 94.7986866,84.2940046 94.7986866,84.6201819 C94.7986866,84.7651496 94.8349285,84.9826012 94.8711705,85.2725366 L90.9208006,85.2725366 C90.8845587,84.8376335 90.8483167,84.5114562 90.8483167,84.3302465 C90.8483167,83.7866176 90.9570425,83.0255372 91.1744941,82.0107633 L92.153026,77.3717968 C92.2979938,76.7556841 92.3704776,76.2482971 92.3704776,75.849636 C92.3704776,74.7261363 91.8630906,74.3999589 90.4496555,74.3999589 L88.9999785,74.3999589 L86.6804953,85.2725366 Z M91.3194618,63.5273813 L89.761059,70.7757664 L90.9570425,70.7757664 C92.5879292,70.7757664 93.638945,69.8334763 94.0738481,67.9488962 L94.5087512,65.9918322 C94.617477,65.593171 94.6537189,65.1945098 94.6537189,64.8320906 C94.6537189,63.9622844 94.146332,63.5273813 93.131558,63.5273813 L91.3194618,63.5273813 Z M103.13346,85.6349558 C99.4730256,85.6349558 97.6609294,84.076553 97.6609294,80.9235055 C97.6609294,80.198667 97.7334132,79.4375866 97.9146228,78.6765061 L98.0958325,77.8066999 L101.901235,77.8066999 L101.611299,79.3651027 C101.538815,79.727522 101.502573,80.0536993 101.502573,80.3436347 C101.502573,81.4671344 102.118686,82.0107633 103.387154,82.0107633 C105.01804,82.0107633 105.851605,80.8147797 105.851605,78.4590546 C105.851605,76.9731356 105.126766,75.342249 103.640847,73.6388785 C101.647541,71.3918791 100.632767,69.1086378 100.632767,66.8253965 C100.632767,64.6871229 101.212638,62.9475105 102.408622,61.6065592 C103.604605,60.229366 105.235492,59.5407695 107.26504,59.5407695 C110.889232,59.5407695 112.701328,61.0991723 112.701328,64.2159779 C112.701328,64.8320906 112.592603,65.593171 112.411393,66.4992192 L112.302667,66.9703642 L108.497265,66.9703642 L108.714717,65.8831064 C108.7872,65.4844452 108.823442,65.122026 108.823442,64.7958487 C108.823442,63.7085909 108.20733,63.164962 107.011346,63.164962 C105.380459,63.164962 104.655621,64.614639 104.655621,66.4629772 C104.655621,67.8764123 105.380459,69.4710571 106.866378,71.1744276 C108.859684,73.5301527 109.874458,75.849636 109.874458,78.1328773 C109.874458,80.3436347 109.258346,82.155731 108.062362,83.5691661 C106.866378,84.9463593 105.235492,85.6349558 103.13346,85.6349558 Z" id="ORDERS" fill="#485696" transform="translate(69.539369, 72.587863) rotate(-12.000000) translate(-69.539369, -72.587863) "></path>
            </g>
        </g>
    </g>
</svg>