<svg width="34" height="34" viewBox="0 0 34 34" xmlns="http://www.w3.org/2000/svg" xmlns:xlink="http://www.w3.org/1999/xlink">
    <defs>
        <path id="bzg2p1ucqa" d="M0 33.996h33.99V.011H0z"/>
    </defs>
    <g fill="none" fill-rule="evenodd">
        <g>
            <mask id="5u1tqu38nb" fill="#fff">
                <use xlink:href="#bzg2p1ucqa"/>
            </mask>
            <path d="M16.995.01c-4.616 0-5.195.02-7.007.103-1.81.083-3.045.37-4.125.79a8.33 8.33 0 0 0-3.01 1.96 8.33 8.33 0 0 0-1.96 3.01C.472 6.954.184 8.19.102 9.998.02 11.811 0 12.39 0 17.005c0 4.616.02 5.195.102 7.007.083 1.81.37 3.045.79 4.125a8.33 8.33 0 0 0 1.96 3.01 8.331 8.331 0 0 0 3.01 1.96c1.081.42 2.317.708 4.126.79 1.812.083 2.391.103 7.007.103 4.615 0 5.194-.02 7.007-.102 1.808-.083 3.044-.37 4.125-.79a8.331 8.331 0 0 0 3.01-1.96 8.331 8.331 0 0 0 1.96-3.01c.42-1.081.707-2.317.79-4.126.083-1.812.102-2.391.102-7.007 0-4.615-.02-5.194-.102-7.007-.083-1.808-.37-3.044-.79-4.125a8.331 8.331 0 0 0-1.96-3.01 8.33 8.33 0 0 0-3.01-1.96c-1.081-.42-2.317-.708-4.125-.79C22.189.03 21.61.011 16.995.011zm0 3.063c4.537 0 5.075.017 6.867.099 1.657.075 2.557.352 3.156.585.793.308 1.359.677 1.954 1.271.594.595.963 1.161 1.27 1.954.234.6.51 1.5.586 3.156.082 1.792.1 2.33.1 6.867 0 4.538-.018 5.076-.1 6.868-.075 1.657-.352 2.556-.585 3.155a5.265 5.265 0 0 1-1.271 1.954 5.265 5.265 0 0 1-1.954 1.272c-.6.232-1.5.51-3.156.585-1.792.082-2.33.099-6.867.099-4.538 0-5.076-.017-6.868-.1-1.657-.075-2.556-.352-3.155-.584a5.265 5.265 0 0 1-1.954-1.272 5.266 5.266 0 0 1-1.272-1.954c-.232-.599-.51-1.498-.585-3.155-.082-1.792-.099-2.33-.099-6.868 0-4.537.017-5.075.1-6.867.075-1.657.352-2.557.584-3.156a5.265 5.265 0 0 1 1.272-1.954 5.265 5.265 0 0 1 1.954-1.27c.599-.234 1.498-.51 3.155-.586 1.792-.082 2.33-.1 6.868-.1z" fill="#FFF" mask="url(#5u1tqu38nb)"/>
        </g>
        <path d="M16.995 22.67a5.665 5.665 0 1 1 0-11.33 5.665 5.665 0 0 1 0 11.33zm0-14.392a8.727 8.727 0 1 0 0 17.454 8.727 8.727 0 0 0 0-17.454zM28.106 7.934a2.04 2.04 0 1 1-4.079 0 2.04 2.04 0 0 1 4.079 0" fill="#FFF"/>
    </g>
</svg>
