<?xml version="1.0" encoding="UTF-8"?>
<svg width="78px" height="30px" viewBox="0 0 78 30" version="1.1" xmlns="http://www.w3.org/2000/svg" xmlns:xlink="http://www.w3.org/1999/xlink">
    <!-- Generator: Sketch 44.1 (41455) - http://www.bohemiancoding.com/sketch -->
    <title>logo Netopia</title>
    <desc>Created with Sketch.</desc>
    <defs></defs>
    <g id="Page-1" stroke="none" stroke-width="1" fill="none" fill-rule="evenodd">
        <g id="HO-Website---Home" transform="translate(-681.000000, -3376.000000)" fill-rule="nonzero" fill="#FFFFFF">
            <g id="Footer" transform="translate(0.000000, 3042.000000)">
                <g id="logo-Netopia" transform="translate(681.000000, 334.000000)">
                    <path d="M0.459642857,22.9992095 L3.83035714,22.9992095 C4.43035098,22.9551003 5.02392715,23.1487373 5.48785714,23.5399209 C5.86893765,23.9477743 6.06587109,24.4997425 6.03107143,25.0624506 C6.06599776,25.6570958 5.84763158,26.2381415 5.43214286,26.6561265 C4.91761135,27.0773499 4.26459534,27.2810485 3.6075,27.2252964 L2.49321429,27.2252964 L2.49321429,29.715415 L0.459642857,29.715415 L0.459642857,22.9992095 Z M2.49321429,25.8450593 L2.99464286,25.8450593 C3.27324054,25.9046211 3.56341588,25.864426 3.81642857,25.7312253 C3.97010403,25.5959016 4.05687931,25.3977462 4.05321429,25.1905138 C4.05649969,24.9933066 3.98106926,24.8032283 3.84428571,24.6640316 C3.64903815,24.4409819 3.37109633,24.3119174 3.07821429,24.3083004 L2.49321429,24.3083004 L2.49321429,25.8450593 Z" id="Shape"></path>
                    <path d="M13.5664286,28.5770751 L11.2682143,28.5770751 L10.9478571,29.6869565 L8.8725,29.6869565 L11.3378571,22.970751 L13.5525,22.970751 L16.0178571,29.715415 L13.9285714,29.715415 L13.5664286,28.5770751 Z M13.1485714,27.1541502 L12.4242857,24.7494071 L11.7,27.1541502 L13.1485714,27.1541502 Z" id="Shape"></path>
                    <polygon id="Shape" points="18.4414286 22.9992095 20.6978571 22.9992095 22.0907143 25.2758893 23.4835714 22.9992095 25.7260714 22.9992095 23.1771429 26.912253 23.1771429 29.7581028 21.0042857 29.7581028 21.0042857 26.912253"></polygon>
                    <polygon id="Shape" points="29.4310714 22.9992095 32.1053571 22.9992095 33.1360714 27.1541502 34.1528571 23.0561265 36.8271429 23.0561265 36.8271429 29.715415 35.1557143 29.715415 35.1557143 24.5928854 33.8742857 29.715415 32.37 29.715415 31.1025 24.5928854 31.1025 29.715415 29.4310714 29.715415"></polygon>
                    <polygon id="Shape" points="41.3260714 22.9992095 46.7721429 22.9992095 46.7721429 24.4221344 43.3596429 24.4221344 43.3596429 25.4893281 46.5214286 25.4893281 46.5214286 26.912253 43.3596429 26.912253 43.3596429 28.2355731 46.8696429 28.2355731 46.8696429 29.715415 41.2982143 29.715415"></polygon>
                    <polygon id="Shape" points="51.1875 22.9992095 53.0817857 22.9992095 55.5610714 26.7130435 55.5610714 22.9992095 57.4692857 22.9992095 57.4692857 29.715415 55.5610714 29.715415 53.0957143 26.0300395 53.0957143 29.715415 51.1875 29.715415"></polygon>
                    <polygon id="Shape" points="61.5782143 22.9992095 67.7485714 22.9992095 67.7485714 24.6640316 65.6732143 24.6640316 65.6732143 29.715415 63.6396429 29.715415 63.6396429 24.6640316 61.5782143 24.6640316"></polygon>
                    <path d="M71.5232143,27.4956522 L73.4592857,27.3675889 C73.4795378,27.6320752 73.5658599,27.8868337 73.71,28.1075099 C73.9306021,28.384018 74.266576,28.5371499 74.6153571,28.5201581 C74.8559257,28.532152 75.0928508,28.4565146 75.2839286,28.3067194 C75.4289295,28.1890984 75.5156064,28.0120024 75.5207143,27.8229249 C75.5117367,27.6420312 75.431321,27.4725934 75.2978571,27.3533597 C74.9796059,27.1524301 74.6238041,27.0215764 74.2532143,26.96917 C73.565925,26.8474687 72.9139571,26.5703563 72.345,26.1581028 C71.9743473,25.8296074 71.7652214,25.3502193 71.7739286,24.8490119 C71.7742776,24.5038201 71.8761866,24.1667054 72.0664286,23.8814229 C72.2792609,23.5534128 72.5855712,23.3000945 72.9439286,23.1557312 C73.4597796,22.9576508 74.0088896,22.8657688 74.5596429,22.8853755 C75.2336363,22.8428768 75.9042603,23.0116697 76.4817857,23.36917 C76.9528485,23.7325995 77.2432798,24.2895643 77.2757143,24.8916996 L75.3535714,25.0055336 C75.3347817,24.7529207 75.2197604,24.5179121 75.0332143,24.3509881 C74.8445746,24.1964556 74.6058475,24.1202429 74.3646429,24.1375494 C74.1691499,24.1240373 73.975671,24.1848544 73.8214286,24.3083004 C73.7065618,24.3948833 73.6392397,24.532434 73.6403571,24.6782609 C73.6381545,24.794711 73.68976,24.9054219 73.7796429,24.9770751 C73.9880861,25.1055672 74.2205902,25.1879732 74.4621429,25.2189723 C75.1189272,25.3411599 75.7593875,25.5417439 76.3703571,25.8166008 C76.71477,25.9728301 77.0057439,26.2304513 77.2060714,26.5565217 C77.3857194,26.8558475 77.4775648,27.2015296 77.4707143,27.5525692 C77.4752392,27.9733083 77.3537371,28.3854033 77.1225,28.7335968 C76.8832691,29.1033824 76.5447502,29.3948647 76.1475,29.5731225 C75.6414317,29.7715412 75.1013483,29.8634983 74.5596429,29.8434783 C73.7352635,29.9365095 72.9074305,29.7021579 72.2475,29.1889328 C71.8104621,28.7346985 71.5526048,28.1318635 71.5232143,27.4956522 L71.5232143,27.4956522 Z" id="Shape"></path>
                    <polygon id="Shape" points="4.47107143 2.86482213 1.74107143 0.701976285 0 0.701976285 0 16.1549407 1.86642857 16.1549407 1.86642857 2.97865613 4.47107143 4.94229249 4.47107143 16.1549407 6.26785714 16.1549407 6.26785714 0.701976285 4.47107143 0.701976285"></polygon>
                    <polygon id="Shape" points="16.9092857 6.18023715 16.1432143 4.40158103 13.5385714 4.40158103 13.5385714 2.36679842 16.3103571 2.36679842 16.3103571 0.701976285 11.8253571 0.701976285 11.8253571 4.55810277 10.5717857 4.55810277 11.1985714 6.09486166 11.8253571 6.09486166 11.8253571 16.1549407 16.3939286 16.1549407 16.3939286 14.4047431 13.5803571 14.4047431 13.5803571 6.18023715"></polygon>
                    <polygon id="Shape" points="21.4221429 2.52332016 23.7064286 2.52332016 23.7064286 16.1549407 25.4892857 16.1549407 25.4892857 2.52332016 27.5646429 2.52332016 27.5646429 0.701976285 21.4221429 0.701976285"></polygon>
                    <rect id="Rectangle-path" x="63.7928571" y="0.701976285" width="1.86642857" height="15.4529644"></rect>
                    <path d="M74.3367857,0.701976285 C71.6903571,0.701976285 71.5510714,2.73675889 71.5510714,2.73675889 L71.5510714,4.38735178 L70.3392857,4.38735178 L70.9103571,6.16600791 L71.4814286,6.16600791 L71.4814286,16.1264822 L73.32,16.1264822 L73.32,6.16600791 L75.5067857,6.16600791 L75.5067857,16.1264822 L77.1782143,16.1264822 L77.1782143,2.73675889 C77.1782143,2.73675889 76.9692857,0.701976285 74.3367857,0.701976285 Z M75.5485714,4.38735178 L73.32,4.38735178 L73.32,3.06403162 C73.32,3.06403162 73.1946429,2.32411067 74.2532143,2.32411067 C75.3117857,2.32411067 75.5485714,2.97865613 75.5485714,2.97865613 L75.5485714,4.38735178 Z" id="Shape"></path>
                    <path d="M38.8328571,0.118577075 C34.3534285,0.0790886359 30.6887926,3.75279745 30.6428571,8.32885375 C30.6428573,12.965426 34.3221172,16.7241104 38.8607143,16.7241104 C43.3993114,16.7241104 47.0785713,12.965426 47.0785714,8.32885375 C47.0565892,6.12117966 46.1740843,4.01352634 44.6264496,2.47254287 C43.0788148,0.931559408 40.9937335,0.0843803657 38.8328571,0.118577075 L38.8328571,0.118577075 Z M38.8328571,14.6608696 C37.1704878,14.6798439 35.5688372,14.0233577 34.3803029,12.8358519 C33.1917686,11.6483461 32.5137253,10.0271112 32.4953571,8.32885375 C32.4953571,4.75319201 35.3327525,1.85454545 38.8328571,1.85454545 C42.3329617,1.85454545 45.1703571,4.75319201 45.1703571,8.32885375 C45.1244812,11.8619817 42.2914922,14.6925191 38.8328571,14.6608696 Z" id="Shape"></path>
                    <path d="M53.3882143,0.701976285 L51.6471429,0.701976285 L51.6471429,16.1549407 L53.5553571,16.1549407 L53.5553571,13.3090909 C53.5553571,13.3090909 59.4471429,12.9960474 59.4471429,7.23320158 C59.4471429,1.47035573 53.3882143,0.701976285 53.3882143,0.701976285 Z M53.4578571,11.8007905 L53.4578571,2.56600791 C55.8982309,2.68699574 57.8194931,4.73724299 57.8314286,7.23320158 C57.8314286,11.0039526 53.4578571,11.8007905 53.4578571,11.8007905 L53.4578571,11.8007905 Z" id="Shape"></path>
                </g>
            </g>
        </g>
    </g>
</svg>