<svg width="111" height="37" viewBox="0 0 111 37" xmlns="http://www.w3.org/2000/svg" xmlns:xlink="http://www.w3.org/1999/xlink">
    <defs>
        <path id="20k7s91ora" d="M55.345 37h55.344V.037H0V37h55.345H0V0h110.69v37H55.344z"/>
    </defs>
    <g fill="none" fill-rule="evenodd">
        <g>
            <mask id="f0nmp3phab" fill="#fff">
                <use xlink:href="#20k7s91ora"/>
            </mask>
            <path d="M101.874 0H8.82c-.34 0-.674 0-1.013.002-.283.002-.564.007-.85.012-.616.015-1.239.053-1.854.163A5.96 5.96 0 0 0 .18 5.107C.07 5.72.03 6.34.014 6.959c-.008.284-.01.569-.014.852v21.381c.005.287.006.565.014.852.016.62.054 1.24.165 1.852.109.62.29 1.2.579 1.762.28.55.647 1.058 1.09 1.493.438.442.944.81 1.497 1.09.564.29 1.14.472 1.758.584.615.11 1.238.146 1.854.163.286.006.567.01.85.01C8.146 37 8.48 37 8.82 37h93.054c.334 0 .67 0 1.003-.002.283 0 .571-.004.853-.01.62-.017 1.242-.053 1.85-.163a6.314 6.314 0 0 0 1.765-.584 5.837 5.837 0 0 0 1.497-1.09c.44-.435.807-.943 1.091-1.493a6.072 6.072 0 0 0 .573-1.762c.115-.613.15-1.232.173-1.852.003-.287.003-.565.003-.852.007-.337.007-.67.007-1.012V8.82c0-.338 0-.674-.007-1.01 0-.282 0-.567-.003-.851-.023-.619-.058-1.239-.173-1.852a6.088 6.088 0 0 0-.573-1.76 5.995 5.995 0 0 0-1.091-1.5 5.994 5.994 0 0 0-1.497-1.09 6.306 6.306 0 0 0-1.765-.58c-.608-.11-1.23-.148-1.85-.163-.282-.005-.57-.01-.853-.012-.332-.002-.67-.002-1.003-.002" fill="#A9AAA9" mask="url(#f0nmp3phab)"/>
        </g>
        <path d="M7.812 36.19c-.283 0-.557-.003-.837-.01-.518-.013-1.13-.043-1.73-.15a5.425 5.425 0 0 1-1.531-.507 4.97 4.97 0 0 1-1.292-.94 4.93 4.93 0 0 1-.945-1.292 5.32 5.32 0 0 1-.502-1.533 11.459 11.459 0 0 1-.154-1.734c-.006-.196-.013-.845-.013-.845V7.811s.008-.64.013-.827c.012-.485.041-1.116.153-1.732.099-.568.263-1.07.503-1.537.245-.486.56-.92.94-1.293A5.15 5.15 0 0 1 5.241.972C5.865.862 6.496.832 6.977.82l.835-.01h95.06l.845.011c.474.012 1.106.04 1.72.15a5.516 5.516 0 0 1 1.545.507c.474.243.908.56 1.286.94.38.375.696.812.948 1.299.238.472.4.974.495 1.525.107.584.14 1.183.16 1.745.003.262.003.544.003.824.009.347.009.677.009 1.01v19.36c0 .335 0 .663-.009.993 0 .301 0 .577-.003.86-.02.546-.053 1.144-.159 1.715a5.32 5.32 0 0 1-.5 1.545 5.064 5.064 0 0 1-.938 1.282 5.026 5.026 0 0 1-1.294.945 5.42 5.42 0 0 1-1.544.509c-.592.107-1.205.137-1.729.15-.27.007-.555.01-.83.01l-1.003.002-94.062-.001" stroke="#A6A6A6" stroke-width=".5" fill="#000"/>
        <path d="M22.911 18.778c-.023-2.544 2.083-3.783 2.18-3.841-1.193-1.74-3.043-1.977-3.692-1.995-1.553-.164-3.059.93-3.85.93-.807 0-2.026-.915-3.338-.887-1.69.026-3.271 1.005-4.138 2.524-1.789 3.096-.454 7.648 1.26 10.151.857 1.227 1.858 2.597 3.17 2.548 1.283-.053 1.762-.819 3.31-.819 1.535 0 1.985.819 3.322.788 1.377-.022 2.244-1.232 3.072-2.47.99-1.404 1.389-2.79 1.404-2.86-.032-.01-2.674-1.018-2.7-4.069M20.384 11.295c.69-.863 1.162-2.037 1.032-3.229-1 .044-2.248.691-2.968 1.535-.636.744-1.204 1.963-1.058 3.11 1.122.084 2.275-.567 2.994-1.416M35.205 23.672h3.47l-1.711-5.039h-.047l-1.712 5.039zm3.924 1.433h-4.378L33.7 28.209h-1.855l4.148-11.487h1.926l4.147 11.487H40.18l-1.05-3.104zM49.256 24.022c0-1.695-.877-2.81-2.213-2.81-1.314 0-2.197 1.138-2.197 2.81 0 1.687.883 2.818 2.197 2.818 1.336 0 2.213-1.107 2.213-2.818zm1.767 0c0 2.602-1.393 4.275-3.496 4.275-1.193 0-2.14-.534-2.634-1.466h-.04v4.148h-1.72V19.834h1.665v1.393h.031c.478-.898 1.498-1.48 2.667-1.48 2.126 0 3.527 1.68 3.527 4.275zM58.473 24.022c0-1.695-.876-2.81-2.213-2.81-1.313 0-2.197 1.138-2.197 2.81 0 1.687.884 2.818 2.197 2.818 1.337 0 2.213-1.107 2.213-2.818zm1.767 0c0 2.602-1.392 4.275-3.495 4.275-1.193 0-2.14-.534-2.634-1.466h-.04v4.148h-1.72V19.834h1.664v1.393h.032c.478-.898 1.496-1.48 2.667-1.48 2.125 0 3.526 1.68 3.526 4.275zM66.333 25.008c.126 1.14 1.234 1.887 2.745 1.887 1.45 0 2.492-.747 2.492-1.775 0-.891-.629-1.425-2.117-1.79l-1.49-.36c-2.109-.51-3.088-1.495-3.088-3.096 0-1.982 1.728-3.343 4.18-3.343 2.427 0 4.091 1.361 4.147 3.343h-1.736c-.103-1.146-1.051-1.838-2.435-1.838-1.386 0-2.333.7-2.333 1.718 0 .812.605 1.29 2.086 1.657l1.265.31c2.357.558 3.337 1.504 3.337 3.185 0 2.148-1.712 3.494-4.435 3.494-2.547 0-4.268-1.314-4.379-3.392h1.76M77.095 17.852v1.982h1.593v1.361h-1.593v4.617c0 .718.32 1.052 1.02 1.052.174 0 .454-.024.565-.04v1.353c-.191.048-.573.08-.955.08-1.696 0-2.357-.637-2.357-2.26v-4.802h-1.217v-1.361h1.217v-1.982h1.727M85.803 24.022c0-1.807-.828-2.875-2.22-2.875-1.394 0-2.22 1.075-2.22 2.875 0 1.815.826 2.873 2.22 2.873 1.392 0 2.22-1.058 2.22-2.873zm-6.193 0c0-2.635 1.552-4.29 3.972-4.29 2.428 0 3.973 1.655 3.973 4.29 0 2.642-1.536 4.29-3.973 4.29-2.435 0-3.972-1.648-3.972-4.29zM88.972 19.834h1.64v1.425h.04c.263-.947 1.027-1.512 2.014-1.512.247 0 .453.032.589.064v1.607c-.136-.055-.439-.103-.773-.103-1.106 0-1.79.749-1.79 1.927v4.967h-1.72v-8.375M95.37 23.25h4.186c-.04-1.282-.86-2.126-2.054-2.126-1.185 0-2.045.86-2.133 2.126zm5.81 2.5c-.231 1.52-1.711 2.562-3.605 2.562-2.437 0-3.95-1.631-3.95-4.25 0-2.627 1.521-4.33 3.877-4.33 2.318 0 3.774 1.591 3.774 4.13v.59h-5.915v.103c0 1.433.9 2.372 2.253 2.372.955 0 1.704-.453 1.934-1.178h1.632zM33.853 12.815h1.04c1.155 0 1.82-.719 1.82-1.985 0-1.247-.676-1.974-1.82-1.974h-1.04v3.959zm1.136-4.739c1.637 0 2.597 1.006 2.597 2.743 0 1.763-.952 2.777-2.597 2.777h-1.993v-5.52h1.993zM39.392 11.129h2.103c-.018-.654-.416-1.08-1.024-1.08-.608 0-1.033.43-1.079 1.08zm2.892 1.342c-.187.746-.853 1.205-1.805 1.205-1.193 0-1.924-.819-1.924-2.15 0-1.332.745-2.176 1.92-2.176 1.16 0 1.859.792 1.859 2.1v.286h-2.942v.047c.027.73.451 1.193 1.11 1.193.497 0 .837-.18.99-.505h.792zM44.959 9.35c.937 0 1.55.436 1.63 1.17H45.8c-.075-.306-.375-.5-.841-.5-.46 0-.807.217-.807.542 0 .25.21.406.661.51l.692.16c.793.183 1.164.524 1.164 1.136 0 .784-.73 1.308-1.725 1.308-.99 0-1.637-.448-1.71-1.186h.823c.102.321.409.52.905.52.513 0 .877-.23.877-.562 0-.25-.195-.41-.612-.509l-.727-.168c-.792-.188-1.158-.543-1.158-1.163 0-.738.676-1.258 1.617-1.258M50.504 10.792c-.096-.405-.433-.708-.984-.708-.688 0-1.11.528-1.11 1.416 0 .902.425 1.442 1.11 1.442.52 0 .876-.238.984-.686h.8c-.108.838-.75 1.42-1.78 1.42-1.212 0-1.954-.819-1.954-2.176 0-1.335.738-2.15 1.95-2.15 1.044 0 1.676.608 1.783 1.442h-.799M54.796 12.062v-.349l-1.017.065c-.573.039-.834.234-.834.601 0 .375.326.593.773.593.62 0 1.078-.394 1.078-.91zm-1.602-4.495c.004.425.282.727.78.727.497 0 .777-.302.78-.727h.662c0 .75-.543 1.294-1.441 1.294-.9 0-1.443-.544-1.443-1.294h.662zm-1.075 4.85c0-.75.558-1.182 1.55-1.243l1.127-.065v-.36c0-.439-.29-.688-.853-.688-.459 0-.776.169-.867.463h-.796c.083-.715.757-1.174 1.701-1.174 1.044 0 1.634.52 1.634 1.4v2.846h-.791v-.586h-.066c-.248.417-.703.654-1.25.654-.803 0-1.389-.486-1.389-1.247zM56.902 9.43h.791v.639h.062c.118-.41.58-.708 1.124-.708.122 0 .28.011.367.034v.811a2.251 2.251 0 0 0-.459-.049c-.623 0-1.063.394-1.063.98v2.459h-.822V9.43M62.775 10.792c-.096-.405-.433-.708-.984-.708-.688 0-1.11.528-1.11 1.416 0 .902.425 1.442 1.11 1.442.52 0 .877-.238.984-.686h.8c-.108.838-.75 1.42-1.78 1.42-1.212 0-1.955-.819-1.955-2.176 0-1.335.74-2.15 1.95-2.15 1.045 0 1.677.608 1.784 1.442h-.799M67.067 12.062v-.349l-1.016.065c-.574.039-.835.234-.835.601 0 .375.326.593.773.593.62 0 1.078-.394 1.078-.91zm-2.677.355c0-.75.558-1.182 1.55-1.243l1.127-.065v-.36c0-.439-.29-.688-.852-.688-.46 0-.777.169-.868.463h-.796c.084-.715.757-1.174 1.701-1.174 1.045 0 1.634.52 1.634 1.4v2.846h-.791v-.586h-.066c-.248.417-.703.654-1.25.654-.803 0-1.389-.486-1.389-1.247zM70.286 10.142v2.141c0 .437.18.628.59.628.125 0 .197-.008.313-.02v.685a2.638 2.638 0 0 1-.448.043c-.06 0-.123 0-.18-.005l-.176.448c.505.012.797.245.797.646 0 .452-.357.747-.964.747-.226 0-.411-.023-.564-.066v-.459c.088.027.319.054.46.054.29 0 .443-.088.443-.256 0-.165-.156-.234-.543-.234h-.226v-.37l.253-.605c-.405-.15-.578-.471-.578-1.025v-2.352h-.661v-.693h.66V8.393h.824V9.45h.903v.693h-.903M72.288 13.596h.82V9.43h-.82v4.166zm-.122-5.398c0-.286.225-.505.532-.505.305 0 .53.219.53.505 0 .283-.225.502-.53.502-.307 0-.532-.219-.532-.502zM77.336 11.51c0 .884.416 1.416 1.112 1.416.693 0 1.121-.54 1.121-1.412 0-.867-.432-1.415-1.12-1.415-.693 0-1.113.536-1.113 1.412zm-.85 0c0-1.316.677-2.149 1.73-2.149.569 0 1.051.272 1.277.73h.06V7.805h.823v5.792h-.788v-.659h-.065c-.248.456-.734.727-1.308.727-1.059 0-1.729-.833-1.729-2.153zM82.356 11.129h2.103c-.019-.654-.416-1.08-1.025-1.08s-1.032.43-1.078 1.08zm2.891 1.342c-.187.746-.853 1.205-1.805 1.205-1.193 0-1.924-.819-1.924-2.15 0-1.332.746-2.176 1.92-2.176 1.16 0 1.858.792 1.858 2.1v.286h-2.94v.047c.026.73.45 1.193 1.109 1.193.497 0 .838-.18.99-.505h.792zM91.704 11.51c0-.879-.417-1.41-1.113-1.41-.692 0-1.125.542-1.125 1.414 0 .869.433 1.412 1.121 1.412.7 0 1.117-.532 1.117-1.415zm.845 0c0 1.324-.669 2.154-1.721 2.154-.593 0-1.063-.26-1.282-.7h-.064v2.016h-.823V9.43h.792v.689h.061c.253-.475.742-.758 1.308-.758 1.06 0 1.729.826 1.729 2.15zM94.282 11.129h2.105c-.02-.654-.417-1.08-1.026-1.08-.608 0-1.032.43-1.079 1.08zm2.892 1.342c-.187.746-.853 1.205-1.805 1.205-1.193 0-1.924-.819-1.924-2.15 0-1.332.747-2.176 1.92-2.176 1.16 0 1.859.792 1.859 2.1v.286h-2.942v.047c.028.73.453 1.193 1.11 1.193.498 0 .839-.18.991-.505h.791z" fill="#FFFFFE"/>
    </g>
</svg>
