<svg width="69" height="69" viewBox="0 0 69 69" xmlns="http://www.w3.org/2000/svg">
    <path d="M38.951 34.111 67.217 5.845a3.4 3.4 0 0 0 1.003-2.421c0-.915-.356-1.774-1.003-2.421A3.4 3.4 0 0 0 64.796 0a3.4 3.4 0 0 0-2.421 1.003L34.11 29.27 5.845 1.003a3.428 3.428 0 0 0-4.842 0A3.4 3.4 0 0 0 0 3.424a3.4 3.4 0 0 0 1.003 2.421L29.268 34.11 1.003 62.376A3.4 3.4 0 0 0 0 64.796c0 .915.356 1.775 1.003 2.421a3.428 3.428 0 0 0 4.842 0L34.11 38.952l28.265 28.265a3.4 3.4 0 0 0 2.42 1.003c.916 0 1.775-.356 2.422-1.003a3.4 3.4 0 0 0 1.003-2.42 3.4 3.4 0 0 0-1.003-2.421L38.95 34.11z" fill="#00000" fill-rule="nonzero"/>
</svg>
