<?xml version="1.0" encoding="UTF-8"?>
<svg width="181px" height="54px" viewBox="0 0 181 54" version="1.1" xmlns="http://www.w3.org/2000/svg" xmlns:xlink="http://www.w3.org/1999/xlink">
    <title>google-play-badge-2</title>
    <defs>
        <path d="M0.716133315,-3.78956116e-15 L0.617066651,0.0947999976 C0.229066661,0.505333321 3.55271368e-15,1.14279997 3.55271368e-15,1.96826662 L3.55271368e-15,1.77399996 L3.55271368e-15,1.77399996 L3.55271368e-15,31.2619992 C3.55271368e-15,31.2646659 3.55271368e-15,31.2666659 3.55271368e-15,31.2687992 C3.55271368e-15,31.2662659 3.55271368e-15,31.2641326 3.55271368e-15,31.2614659 L3.55271368e-15,31.0666659 C3.55271368e-15,31.9605325 0.26706666,32.6338659 0.714533315,33.0375992 L17.2342662,16.5182663 L0.716133315,-3.78956116e-15 M-1.38777878e-17,31.2703992 C-1.38777878e-17,31.3438659 0.00199999995,31.4151992 0.00573333319,31.4854659 C0.00199999995,31.4157325 -1.38777878e-17,31.3438659 -1.38777878e-17,31.2703992" id="path-1"></path>
        <linearGradient x1="61.2933704%" y1="95.5670711%" x2="25.9611265%" y2="27.8361624%" id="linearGradient-3">
            <stop stop-color="#00A0FF" offset="0%"></stop>
            <stop stop-color="#00A1FF" offset="0.657445%"></stop>
            <stop stop-color="#00BEFF" offset="26.01%"></stop>
            <stop stop-color="#00D2FF" offset="51.22%"></stop>
            <stop stop-color="#00DFFF" offset="76.04%"></stop>
            <stop stop-color="#00E3FF" offset="100%"></stop>
        </linearGradient>
        <path d="M5.5057332,0 L5.5057332,0 L5.63133319,0.0713333316 L12.1551997,3.77813324 C12.7771997,4.13173323 13.191733,4.56039989 13.398533,5.01399987 C13.1922663,4.56039989 12.7775997,4.1311999 12.1551997,3.77759991 L5.63133319,0.0707999982 L5.5057332,0 M5.5073332,0.195333328 L0,5.70359986 L5.50679986,11.2109331 L12.1551997,7.43386648 C12.9994663,6.95413316 13.4734663,6.33586651 13.5526663,5.70413319 C13.5526663,5.70359986 13.5526663,5.70253319 13.5526663,5.70159986 C13.4734663,5.07133321 12.9994663,4.45253322 12.1551997,3.97293323 L5.5073332,0.195333328" id="path-4"></path>
        <linearGradient x1="107.590142%" y1="50.8682001%" x2="-130.463869%" y2="50.8682001%" id="linearGradient-6">
            <stop stop-color="#FFE000" offset="0%"></stop>
            <stop stop-color="#FFBD00" offset="40.87%"></stop>
            <stop stop-color="#FFA500" offset="77.54%"></stop>
            <stop stop-color="#FF9C00" offset="100%"></stop>
        </linearGradient>
        <path d="M1.26826663,0 C0.80679998,0 0.404133323,0.149999996 0.0901333311,0.433333323 L0.0906666644,0.433866656 C0.404666657,0.15053333 0.807866646,0 1.2693333,0 C1.3093333,0 1.34999997,0.00106666664 1.39119997,0.00306666659 C1.34946663,0.00106666664 1.30826663,0 1.26826663,0 M1.26879997,0.195331916 C0.807333313,0.194799995 0.404666657,0.345333325 0.0906666644,0.628666651 L0.0906666644,0.628666651 L0.0906666644,0.629066651 L16.6087996,17.1473329 L22.1161328,11.6390664 L22.1161328,11.6390664 L2.76253326,0.642666651 C2.22706661,0.339066658 1.71973329,0.195331916 1.26879997,0.195331916 M0.0859999979,0.436933322 C0.0567999986,0.463466655 0.0281333326,0.491599988 3.46944695e-18,0.520799987 L0.0859999979,0.436933322" id="path-7"></path>
        <linearGradient x1="86.7252262%" y1="69.3280122%" x2="-50.4795896%" y2="-37.0511942%" id="linearGradient-9">
            <stop stop-color="#FF3A44" offset="0%"></stop>
            <stop stop-color="#C31162" offset="100%"></stop>
        </linearGradient>
        <path d="M16.5197329,0 L16.5197329,0 L0,16.5193329 C0.313999992,16.8021329 0.716133315,16.9521329 1.17706664,16.9521329 C1.62919996,16.9521329 2.13693328,16.8078662 2.6734666,16.5037329 L22.0265328,5.5073332 L16.5197329,0 M22.1510661,5.63173319 L2.6734666,16.6983996 C2.13693328,17.0026662 1.62919996,17.1469329 1.17706664,17.1469329 C1.1749333,17.1469329 1.17346664,17.1469329 1.1713333,17.1469329 C1.17399997,17.1469329 1.17599997,17.1469329 1.17919997,17.1469329 C1.63026663,17.1469329 2.13746661,17.0031996 2.6734666,16.6989329 L22.1510661,5.63173319" id="path-10"></path>
        <linearGradient x1="-19.3296937%" y1="112.411183%" x2="41.8411754%" y2="65.0593858%" id="linearGradient-12">
            <stop stop-color="#32A071" offset="0%"></stop>
            <stop stop-color="#2DA771" offset="6.85%"></stop>
            <stop stop-color="#15CF74" offset="47.62%"></stop>
            <stop stop-color="#06E775" offset="80.09%"></stop>
            <stop stop-color="#00F076" offset="100%"></stop>
        </linearGradient>
        <polyline id="path-13" points="0.00386666657 0.0309999992 0.00386666657 0.0309999992 0.129466663 0.102333331 0.00386666657 0.0309999992"></polyline>
        <linearGradient x1="6809.6%" y1="4300.35%" x2="-17387.4%" y2="4300.35%" id="linearGradient-15">
            <stop stop-color="#CCB300" offset="0%"></stop>
            <stop stop-color="#CC9700" offset="40.87%"></stop>
            <stop stop-color="#CC8400" offset="77.54%"></stop>
            <stop stop-color="#CC7D00" offset="100%"></stop>
        </linearGradient>
        <path d="M1.2777333,-3.78956116e-15 C0.816266646,-3.78956116e-15 0.413066656,0.15053333 0.0990666642,0.433866656 L0.0985333309,0.433333323 C0.0974666642,0.434399989 0.0958666643,0.435866656 0.0943999976,0.436933322 L0.00839999979,0.520799987 C0.00573333319,0.523466654 0.00319999992,0.52653332 7.57912233e-15,0.529599987 L0.0990666642,0.628666651 C0.413066656,0.345333325 0.815733313,0.194799995 1.27719997,0.195333328 C1.72813329,0.195333328 2.23546661,0.339066658 2.77093326,0.642666651 L22.1245328,11.6390664 L22.2485328,11.5150664 L22.1229328,11.443733 L2.77093326,0.447866655 C2.28293328,0.171333329 1.81879995,0.027066666 1.39959997,0.00306666659 C1.35839997,0.00106666664 1.3177333,-3.78956116e-15 1.2777333,-3.78956116e-15" id="path-16"></path>
        <linearGradient x1="86.2468837%" y1="69.4394661%" x2="-50.1414325%" y2="-1.91052725%" id="linearGradient-18">
            <stop stop-color="#CC2E36" offset="0%"></stop>
            <stop stop-color="#9C0E4E" offset="100%"></stop>
        </linearGradient>
        <path d="M0.617066651,0 L0.617066651,0 C0.229066661,0.410533323 0,1.04746664 0,1.87346662 L0,2.06773328 C0,1.24226664 0.229066661,0.604799985 0.617066651,0.194266662 L0.716133315,0.0994666642 L0.617066651,0" id="path-19"></path>
        <linearGradient x1="308.135018%" y1="1531.75135%" x2="-66.6655356%" y2="449.567965%" id="linearGradient-21">
            <stop stop-color="#008DE0" offset="0%"></stop>
            <stop stop-color="#008DE0" offset="0.657445%"></stop>
            <stop stop-color="#00A7E0" offset="26.01%"></stop>
            <stop stop-color="#00B8E0" offset="51.22%"></stop>
            <stop stop-color="#00C4E0" offset="76.04%"></stop>
            <stop stop-color="#00C7E0" offset="100%"></stop>
        </linearGradient>
        <polyline id="path-22" points="0.0171333329 0.0169333329 0.0171333329 0.0169333329 0.0171333329 0.0169333329 0.116199997 0.116399997 0.116199997 0.115999997 0.0171333329 0.0169333329"></polyline>
        <linearGradient x1="14404.35%" y1="10180.7%" x2="-8353.95%" y2="-12577.6%" id="linearGradient-24">
            <stop stop-color="#E0333C" offset="0%"></stop>
            <stop stop-color="#AB0F56" offset="100%"></stop>
        </linearGradient>
        <path d="M0.123999997,0 L0.123999997,0 L0,0.123999997 L6.6478665,3.9015999 C7.49213315,4.38119989 7.96613313,5 8.04533313,5.63026653 C8.04533313,5.3989332 7.99373313,5.1677332 7.8911998,4.94266654 C7.68439981,4.48906655 7.26986648,4.0603999 6.6478665,3.70679991 L0.123999997,0" id="path-25"></path>
        <linearGradient x1="112.78588%" y1="100.021313%" x2="-288.225058%" y2="100.021313%" id="linearGradient-27">
            <stop stop-color="#E0C500" offset="0%"></stop>
            <stop stop-color="#E0A600" offset="40.87%"></stop>
            <stop stop-color="#E09100" offset="77.54%"></stop>
            <stop stop-color="#E08900" offset="100%"></stop>
        </linearGradient>
        <path d="M8.04586647,0 C7.96666647,0.631733318 7.49266648,1.24999997 6.64839983,1.72973329 L7.57912233e-15,5.50679986 L0.123999997,5.63079986 L0.12453333,5.63079986 L6.64839983,1.92399995 C7.57919981,1.39479997 8.04533313,0.697466649 8.04586647,0" id="path-28"></path>
        <linearGradient x1="112.785032%" y1="-0.0236792877%" x2="-288.199324%" y2="-0.0236792877%" id="linearGradient-30">
            <stop stop-color="#FFE840" offset="0%"></stop>
            <stop stop-color="#FFCE40" offset="40.87%"></stop>
            <stop stop-color="#FFBC40" offset="77.54%"></stop>
            <stop stop-color="#FFB540" offset="100%"></stop>
        </linearGradient>
        <path d="M0,0 L0,0.194799995 C0,0.197466662 0,0.199599995 0,0.202133328 C0,0.202666662 0,0.203199995 0,0.203733328 C0,0.277199993 0.00199999995,0.349066658 0.00573333319,0.41879999 C0.00573333319,0.419866656 0.00573333319,0.420933323 0.00573333319,0.421999989 C0.00573333319,0.422933323 0.00573333319,0.423999989 0.00613333318,0.425066656 C0.00613333318,0.427199989 0.00613333318,0.429199989 0.00613333318,0.431333323 C0.00613333318,0.431866656 0.00613333318,0.432399989 0.00613333318,0.432933323 C0.0462666655,1.14386664 0.26706666,1.69853329 0.617066651,2.06879995 L0.617066651,2.06879995 L0.617066651,2.06879995 L0.714533315,1.97093328 C0.26706666,1.56719996 0,0.893866644 0,0" id="path-31"></path>
        <linearGradient x1="306.91369%" y1="23.3823801%" x2="-66.1070955%" y2="-1009.83193%" id="linearGradient-33">
            <stop stop-color="#40B8FF" offset="0%"></stop>
            <stop stop-color="#40B9FF" offset="0.657445%"></stop>
            <stop stop-color="#40CEFF" offset="26.01%"></stop>
            <stop stop-color="#40DDFF" offset="51.22%"></stop>
            <stop stop-color="#40E7FF" offset="76.04%"></stop>
            <stop stop-color="#40EAFF" offset="100%"></stop>
        </linearGradient>
        <path d="M22.1239994,0 L2.77093326,10.9963997 C2.23439994,11.3005331 1.72666662,11.4447997 1.2745333,11.4447997 C0.81359998,11.4447997 0.411466656,11.2947997 0.0974666642,11.0119997 L-3.78956116e-15,11.1098664 L-3.78956116e-15,11.1098664 C0.0307999992,11.1421331 0.0619999984,11.1734664 0.0947999976,11.2030664 C0.0958666643,11.2041331 0.0974666642,11.2051997 0.0985333309,11.2062664 C0.40999999,11.486933 0.807866646,11.636933 1.26466664,11.6395997 L1.26466664,11.6395997 C1.2657333,11.6395997 1.26719997,11.6395997 1.26879997,11.6395997 C1.2709333,11.6395997 1.27239997,11.6395997 1.2745333,11.6395997 C1.72666662,11.6395997 2.23439994,11.495333 2.77093326,11.1910664 L22.2485328,0.124399997 L22.2479994,0.123999997 L22.1239994,0" id="path-34"></path>
        <linearGradient x1="-18.8069326%" y1="85.5201818%" x2="42.0959584%" y2="53.6580685%" id="linearGradient-36">
            <stop stop-color="#65B895" offset="0%"></stop>
            <stop stop-color="#62BD95" offset="6.85%"></stop>
            <stop stop-color="#50DB97" offset="47.62%"></stop>
            <stop stop-color="#44ED98" offset="80.09%"></stop>
            <stop stop-color="#40F498" offset="100%"></stop>
        </linearGradient>
    </defs>
    <g id="Page-1" stroke="none" stroke-width="1" fill="none" fill-rule="evenodd">
        <g id="google-play-badge-2" transform="translate(0.333333, 0.333335)">
            <g id="g10" transform="translate(89.999998, 26.666666) scale(-1, 1) rotate(-180.000000) translate(-89.999998, -26.666666) translate(0.000000, 0.000000)">
                <path d="M173.333329,0 L6.6666665,0 C3,0 3.55271368e-15,3 3.55271368e-15,6.6666665 L3.55271368e-15,46.6666655 C3.55271368e-15,50.3333321 3,53.333332 6.6666665,53.333332 L173.333329,53.333332 C177,53.333332 180,50.3333321 180,46.6666655 L180,6.6666665 C180,3 177,0 173.333329,0" id="path14" fill="#000000" fill-rule="nonzero"></path>
                <path d="M173.333329,53.333332 L6.6666665,53.333332 C3,53.333332 3.55271368e-15,50.3333321 3.55271368e-15,46.6666655 L3.55271368e-15,6.6666665 C3.55271368e-15,3 3,0 6.6666665,0 L173.333329,0 C177,0 180,3 180,6.6666665 L180,46.6666655 C180,50.3333321 177,53.333332 173.333329,53.333332 M173.333329,52.2666654 C176.421329,52.2666654 178.933329,49.7541321 178.933329,46.6666655 L178.933329,6.6666665 C178.933329,3.57866658 176.421329,1.06613331 173.333329,1.06613331 L6.6666665,1.06613331 C3.57919991,1.06613331 1.06666664,3.57866658 1.06666664,6.6666665 L1.06666664,46.6666655 C1.06666664,49.7541321 3.57919991,52.2666654 6.6666665,52.2666654 L173.333329,52.2666654" id="path16" fill="#A6A6A6" fill-rule="nonzero"></path>
                <path d="M142.58133,13.333333 L145.06933,13.333333 L145.06933,30.0015992 L142.58133,30.0015992 L142.58133,13.333333 Z M164.990663,23.9973327 L162.138663,16.7707996 L162.053329,16.7707996 L159.093329,23.9973327 L156.413329,23.9973327 L160.851996,13.896933 L158.321329,8.27866646 L160.917329,8.27866646 L167.757329,23.9973327 L164.990663,23.9973327 Z M150.88133,15.226533 C150.06533,15.226533 148.92933,15.6338663 148.92933,16.6421329 C148.92933,17.9286662 150.34533,18.4218662 151.566663,18.4218662 C152.66133,18.4218662 153.174663,18.1859995 153.839996,17.8639996 C153.646663,16.3202663 152.31733,15.226533 150.88133,15.226533 L150.88133,15.226533 Z M151.18133,24.3619994 C149.379996,24.3619994 147.514663,23.5682661 146.742663,21.8098661 L148.950663,20.8879995 C149.422663,21.8098661 150.30133,22.1103994 151.223996,22.1103994 C152.510663,22.1103994 153.818663,21.3379995 153.839996,19.9655995 L153.839996,19.7942662 C153.389329,20.0515995 152.42533,20.4374662 151.24533,20.4374662 C148.86533,20.4374662 146.44133,19.1297329 146.44133,16.6849329 C146.44133,14.4546663 148.39333,13.017733 150.579996,13.017733 C152.25333,13.017733 153.174663,13.7682663 153.754663,14.647333 L153.839996,14.647333 L153.839996,13.360933 L156.241329,13.360933 L156.241329,19.7515995 C156.241329,22.7103994 154.033329,24.3619994 151.18133,24.3619994 L151.18133,24.3619994 Z M135.80533,21.9682661 L132.266663,21.9682661 L132.266663,27.6817326 L135.80533,27.6817326 C137.66533,27.6817326 138.72133,26.1417327 138.72133,24.825066 C138.72133,23.5333327 137.66533,21.9682661 135.80533,21.9682661 Z M135.74133,30.0015992 L129.779997,30.0015992 L129.779997,13.333333 L132.266663,13.333333 L132.266663,19.6483995 L135.74133,19.6483995 C138.498663,19.6483995 141.20933,21.6447995 141.20933,24.825066 C141.20933,28.0051993 138.498663,30.0015992 135.74133,30.0015992 Z M103.233331,15.2234663 C101.514531,15.2234663 100.075464,16.6625329 100.075464,18.6390662 C100.075464,20.6363995 101.514531,22.0973328 103.233331,22.0973328 C104.930264,22.0973328 106.261997,20.6363995 106.261997,18.6390662 C106.261997,16.6625329 104.930264,15.2234663 103.233331,15.2234663 L103.233331,15.2234663 Z M106.090131,23.0639994 L106.004131,23.0639994 C105.445864,23.7297327 104.371331,24.3311994 103.018264,24.3311994 C100.182797,24.3311994 97.5838642,21.8395995 97.5838642,18.6390662 C97.5838642,15.4598663 100.182797,12.9895997 103.018264,12.9895997 C104.371331,12.9895997 105.445864,13.5911997 106.004131,14.278133 L106.090131,14.278133 L106.090131,13.4619997 C106.090131,11.2921331 104.930264,10.1322664 103.061464,10.1322664 C101.536397,10.1322664 100.591197,11.2281331 100.204131,12.1515997 L98.0349309,11.2494664 C98.6578642,9.74586642 100.311997,7.8983998 103.061464,7.8983998 C105.982797,7.8983998 108.453064,9.61719976 108.453064,13.805733 L108.453064,23.9874661 L106.090131,23.9874661 L106.090131,23.0639994 Z M110.171331,13.333333 L112.663064,13.333333 L112.663064,30.0021326 L110.171331,30.0021326 L110.171331,13.333333 Z M116.336397,18.8322662 C116.271864,21.0234661 118.03333,22.1401328 119.30053,22.1401328 C120.28933,22.1401328 121.126664,21.6463995 121.40533,20.9369328 L116.336397,18.8322662 Z M124.06933,20.7223995 C123.59733,21.9901328 122.15733,24.3311994 119.21453,24.3311994 C116.293197,24.3311994 113.86613,22.0327994 113.86613,18.6603995 C113.86613,15.4811996 116.271864,12.9895997 119.49373,12.9895997 C122.09333,12.9895997 123.59733,14.5791996 124.219997,15.5026663 L122.286664,16.7917329 C121.642664,15.8463996 120.76133,15.2234663 119.49373,15.2234663 C118.22653,15.2234663 117.32453,15.8035996 116.744264,16.9417329 L124.326664,20.0781328 L124.06933,20.7223995 Z M63.6583984,22.5911994 L63.6583984,20.1854662 L69.4150649,20.1854662 C69.2431983,18.8322662 68.7921316,17.8442662 68.104665,17.1567996 C67.2671983,16.3187996 65.9567984,15.3953329 63.6583984,15.3953329 C60.1139985,15.3953329 57.3431986,18.2521329 57.3431986,21.7963995 C57.3431986,25.340666 60.1139985,28.197866 63.6583984,28.197866 C65.570265,28.197866 66.9661317,27.445866 67.9973316,26.4791993 L69.6942649,28.1759993 C68.2551983,29.5510659 66.3431983,30.6035992 63.6583984,30.6035992 C58.8035985,30.6035992 54.7223986,26.651066 54.7223986,21.7963995 C54.7223986,16.9417329 58.8035985,12.9895997 63.6583984,12.9895997 C66.2791983,12.9895997 68.2551983,13.8483997 69.8015983,15.4598663 C71.3911982,17.0494662 71.8854649,19.2833329 71.8854649,21.0874661 C71.8854649,21.6463995 71.8426649,22.1614661 71.7562649,22.5911994 L63.6583984,22.5911994 Z M78.4302647,15.2234663 C76.7114647,15.2234663 75.2291981,16.6411996 75.2291981,18.6603995 C75.2291981,20.7010661 76.7114647,22.0973328 78.4302647,22.0973328 C80.148398,22.0973328 81.6306646,20.7010661 81.6306646,18.6603995 C81.6306646,16.6411996 80.148398,15.2234663 78.4302647,15.2234663 L78.4302647,15.2234663 Z M78.4302647,24.3311994 C75.2937315,24.3311994 72.7374648,21.9469328 72.7374648,18.6603995 C72.7374648,15.3953329 75.2937315,12.9895997 78.4302647,12.9895997 C81.5661313,12.9895997 84.1223979,15.3953329 84.1223979,18.6603995 C84.1223979,21.9469328 81.5661313,24.3311994 78.4302647,24.3311994 Z M90.8478644,15.2234663 C89.1297311,15.2234663 87.6473311,16.6411996 87.6473311,18.6603995 C87.6473311,20.7010661 89.1297311,22.0973328 90.8478644,22.0973328 C92.566131,22.0973328 94.0483976,20.7010661 94.0483976,18.6603995 C94.0483976,16.6411996 92.566131,15.2234663 90.8478644,15.2234663 Z M90.8478644,24.3311994 C87.7114645,24.3311994 85.1557312,21.9469328 85.1557312,18.6603995 C85.1557312,15.3953329 87.7114645,12.9895997 90.8478644,12.9895997 C93.9838643,12.9895997 96.5401309,15.3953329 96.5401309,18.6603995 C96.5401309,21.9469328 93.9838643,24.3311994 90.8478644,24.3311994" id="path18" fill="#FFFFFF" fill-rule="nonzero"></path>
                <g id="g20" transform="translate(13.296933, 10.147333)">
                    <g id="g22-Clipped" transform="translate(0.000000, 0.000000)">
                        <mask id="mask-2" fill="white">
                            <use xlink:href="#path-1"></use>
                        </mask>
                        <g id="path24"></g>
                        <g id="g22" mask="url(#mask-2)" fill="url(#linearGradient-3)" fill-rule="nonzero">
                            <path d="M0.716133315,-3.78956116e-15 L0.617066651,0.0947999976 C0.229066661,0.505333321 3.55271368e-15,1.14279997 3.55271368e-15,1.96826662 L3.55271368e-15,1.77399996 L3.55271368e-15,1.77399996 L3.55271368e-15,31.2619992 C3.55271368e-15,31.2646659 3.55271368e-15,31.2666659 3.55271368e-15,31.2687992 C3.55271368e-15,31.2662659 3.55271368e-15,31.2641326 3.55271368e-15,31.2614659 L3.55271368e-15,31.0666659 C3.55271368e-15,31.9605325 0.26706666,32.6338659 0.714533315,33.0375992 L17.2342662,16.5182663 L0.716133315,-3.78956116e-15 M-1.38777878e-17,31.2703992 C-1.38777878e-17,31.3438659 0.00199999995,31.4151992 0.00573333319,31.4854659 C0.00199999995,31.4157325 -1.38777878e-17,31.3438659 -1.38777878e-17,31.2703992" id="path42"></path>
                        </g>
                    </g>
                </g>
                <g id="g46-Clipped" transform="translate(30.531199, 20.961999)">
                    <mask id="mask-5" fill="white">
                        <use xlink:href="#path-4"></use>
                    </mask>
                    <g id="path48"></g>
                    <g id="g46" mask="url(#mask-5)" fill="url(#linearGradient-6)" fill-rule="nonzero">
                        <path d="M5.5057332,0 L5.5057332,0 L5.63133319,0.0713333316 L12.1551997,3.77813324 C12.7771997,4.13173323 13.191733,4.56039989 13.398533,5.01399987 C13.1922663,4.56039989 12.7775997,4.1311999 12.1551997,3.77759991 L5.63133319,0.0707999982 L5.5057332,0 M5.5073332,0.195333328 L0,5.70359986 L5.50679986,11.2109331 L12.1551997,7.43386648 C12.9994663,6.95413316 13.4734663,6.33586651 13.5526663,5.70413319 C13.5526663,5.70359986 13.5526663,5.70253319 13.5526663,5.70159986 C13.4734663,5.07133321 12.9994663,4.45253322 12.1551997,3.97293323 L5.5073332,0.195333328" id="path62"></path>
                    </g>
                </g>
                <g id="g64" transform="translate(13.922400, 9.518266)">
                    <g id="g66-Clipped" transform="translate(-0.000000, 0.000000)">
                        <mask id="mask-8" fill="white">
                            <use xlink:href="#path-7"></use>
                        </mask>
                        <g id="path68"></g>
                        <g id="g66" mask="url(#mask-8)" fill="url(#linearGradient-9)" fill-rule="nonzero">
                            <path d="M1.26826663,0 C0.80679998,0 0.404133323,0.149999996 0.0901333311,0.433333323 L0.0906666644,0.433866656 C0.404666657,0.15053333 0.807866646,0 1.2693333,0 C1.3093333,0 1.34999997,0.00106666664 1.39119997,0.00306666659 C1.34946663,0.00106666664 1.30826663,0 1.26826663,0 M1.26879997,0.195331916 C0.807333313,0.194799995 0.404666657,0.345333325 0.0906666644,0.628666651 L0.0906666644,0.628666651 L0.0906666644,0.629066651 L16.6087996,17.1473329 L22.1161328,11.6390664 L22.1161328,11.6390664 L2.76253326,0.642666651 C2.22706661,0.339066658 1.71973329,0.195331916 1.26879997,0.195331916 M0.0859999979,0.436933322 C0.0567999986,0.463466655 0.0281333326,0.491599988 3.46944695e-18,0.520799987 L0.0859999979,0.436933322" id="path78"></path>
                        </g>
                    </g>
                </g>
                <g id="g82-Clipped" transform="translate(14.011466, 26.665599)">
                    <mask id="mask-11" fill="white">
                        <use xlink:href="#path-10"></use>
                    </mask>
                    <g id="path84"></g>
                    <g id="g82" mask="url(#mask-11)" fill="url(#linearGradient-12)" fill-rule="nonzero">
                        <path d="M16.5197329,0 L16.5197329,0 L0,16.5193329 C0.313999992,16.8021329 0.716133315,16.9521329 1.17706664,16.9521329 C1.62919996,16.9521329 2.13693328,16.8078662 2.6734666,16.5037329 L22.0265328,5.5073332 L16.5197329,0 M22.1510661,5.63173319 L2.6734666,16.6983996 C2.13693328,17.0026662 1.62919996,17.1469329 1.17706664,17.1469329 C1.1749333,17.1469329 1.17346664,17.1469329 1.1713333,17.1469329 C1.17399997,17.1469329 1.17599997,17.1469329 1.17919997,17.1469329 C1.63026663,17.1469329 2.13746661,17.0031996 2.6734666,16.6989329 L22.1510661,5.63173319" id="path100"></path>
                    </g>
                </g>
                <path d="M15.3135996,9.5213331 C15.7327996,9.54533309 16.1969329,9.68959976 16.6849329,9.96613308 L36.0369324,20.9619995 L36.0369324,20.9619995 L16.6849329,9.96613308 C16.1973329,9.68906642 15.7327996,9.54533309 15.3135996,9.5213331" id="path102" fill="#000000" fill-rule="nonzero"></path>
                <g id="g106-Clipped" transform="translate(36.033066, 20.930999)">
                    <mask id="mask-14" fill="white">
                        <use xlink:href="#path-13"></use>
                    </mask>
                    <g id="path108"></g>
                    <g id="g106" mask="url(#mask-14)" fill="url(#linearGradient-15)" fill-rule="nonzero">
                        <polyline id="path122" points="0.00386666657 0.0309999992 0.00386666657 0.0309999992 0.129466663 0.102333331 0.00386666657 0.0309999992"></polyline>
                    </g>
                </g>
                <g id="g124" transform="translate(13.914000, 9.518266)">
                    <g id="g126-Clipped" transform="translate(0.000000, 0.000000)">
                        <mask id="mask-17" fill="white">
                            <use xlink:href="#path-16"></use>
                        </mask>
                        <g id="path128"></g>
                        <g id="g126" mask="url(#mask-17)" fill="url(#linearGradient-18)" fill-rule="nonzero">
                            <path d="M1.2777333,-3.78956116e-15 C0.816266646,-3.78956116e-15 0.413066656,0.15053333 0.0990666642,0.433866656 L0.0985333309,0.433333323 C0.0974666642,0.434399989 0.0958666643,0.435866656 0.0943999976,0.436933322 L0.00839999979,0.520799987 C0.00573333319,0.523466654 0.00319999992,0.52653332 7.57912233e-15,0.529599987 L0.0990666642,0.628666651 C0.413066656,0.345333325 0.815733313,0.194799995 1.27719997,0.195333328 C1.72813329,0.195333328 2.23546661,0.339066658 2.77093326,0.642666651 L22.1245328,11.6390664 L22.2485328,11.5150664 L22.1229328,11.443733 L2.77093326,0.447866655 C2.28293328,0.171333329 1.81879995,0.027066666 1.39959997,0.00306666659 C1.35839997,0.00106666664 1.3177333,-3.78956116e-15 1.2777333,-3.78956116e-15" id="path138"></path>
                        </g>
                    </g>
                </g>
                <path d="M13.9139997,10.0473331 C13.5259997,10.4578664 13.296933,11.0953331 13.296933,11.9207997 L13.296933,11.921333 C13.296933,11.0953331 13.5259997,10.4583997 13.9139997,10.0478664 L13.9139997,10.0478664 L13.9139997,10.0478664 L13.9139997,10.0473331" id="path140" fill="#000000" fill-rule="nonzero"></path>
                <g id="g144-Clipped" transform="translate(13.296933, 10.047866)">
                    <mask id="mask-20" fill="white">
                        <use xlink:href="#path-19"></use>
                    </mask>
                    <g id="path146"></g>
                    <g id="g144" mask="url(#mask-20)" fill="url(#linearGradient-21)" fill-rule="nonzero">
                        <path d="M0.617066651,0 L0.617066651,0 C0.229066661,0.410533323 0,1.04746664 0,1.87346662 L0,2.06773328 C0,1.24226664 0.229066661,0.604799985 0.617066651,0.194266662 L0.716133315,0.0994666642 L0.617066651,0" id="path164"></path>
                    </g>
                </g>
                <g id="g168-Clipped" transform="translate(13.896866, 10.030933)">
                    <mask id="mask-23" fill="white">
                        <use xlink:href="#path-22"></use>
                    </mask>
                    <g id="path170"></g>
                    <g id="g168" mask="url(#mask-23)" fill="url(#linearGradient-24)" fill-rule="nonzero">
                        <polyline id="path180" points="0.0171333329 0.0169333329 0.0171333329 0.0169333329 0.0171333329 0.0169333329 0.116199997 0.116399997 0.116199997 0.115999997 0.0171333329 0.0169333329"></polyline>
                    </g>
                </g>
                <path d="M43.9297322,25.9759994 C44.0322656,26.201066 44.0838656,26.432266 44.0838656,26.6635993 C44.0838656,26.6639993 44.0838656,26.6645327 44.0838656,26.6645327 C44.0838656,26.4327993 44.0322656,26.2015993 43.9297322,25.9759994" id="path182" fill="#000000" fill-rule="nonzero"></path>
                <g id="g186-Clipped" transform="translate(36.038532, 21.033333)">
                    <mask id="mask-26" fill="white">
                        <use xlink:href="#path-25"></use>
                    </mask>
                    <g id="path188"></g>
                    <g id="g186" mask="url(#mask-26)" fill="url(#linearGradient-27)" fill-rule="nonzero">
                        <path d="M0.123999997,0 L0.123999997,0 L0,0.123999997 L6.6478665,3.9015999 C7.49213315,4.38119989 7.96613313,5 8.04533313,5.63026653 C8.04533313,5.3989332 7.99373313,5.1677332 7.8911998,4.94266654 C7.68439981,4.48906655 7.26986648,4.0603999 6.6478665,3.70679991 L0.123999997,0" id="path202"></path>
                    </g>
                </g>
                <path d="M44.0838674,26.6655993 L44.0838674,26.6661327 C44.0833322,27.3635993 43.6171989,28.0609326 42.6863989,28.5901326 L36.1625324,32.2969325 L36.1619991,32.2969325 L36.1625324,32.2973325 L42.6863989,28.590666 C43.6182656,28.061466 44.0849322,27.363066 44.0838674,26.6655993" id="path204" fill="#404040" fill-rule="nonzero"></path>
                <g id="g208-Clipped" transform="translate(36.037999, 26.666133)">
                    <mask id="mask-29" fill="white">
                        <use xlink:href="#path-28"></use>
                    </mask>
                    <g id="path210"></g>
                    <g id="g208" mask="url(#mask-29)" fill="url(#linearGradient-30)" fill-rule="nonzero">
                        <path d="M8.04586647,0 C7.96666647,0.631733318 7.49266648,1.24999997 6.64839983,1.72973329 L7.57912233e-15,5.50679986 L0.123999997,5.63079986 L0.12453333,5.63079986 L6.64839983,1.92399995 C7.57919981,1.39479997 8.04533313,0.697466649 8.04586647,0" id="path224"></path>
                    </g>
                </g>
                <path d="M13.3030663,41.6469323 C13.3802663,43.0166656 14.1250663,43.8078656 15.1786663,43.8125322 C14.7218663,43.8098656 14.3239996,43.6598656 14.012533,43.3791989 L14.012533,43.3797322 L14.0087996,43.3759989 C13.9759997,43.3463989 13.9447997,43.3150656 13.9139997,43.2827989 L13.9139997,43.2827989 C13.5639997,42.9125323 13.3431997,42.3578656 13.3030663,41.6469323" id="path226" fill="#404040" fill-rule="nonzero"></path>
                <g id="g230-Clipped" transform="translate(13.296933, 41.213999)">
                    <mask id="mask-32" fill="white">
                        <use xlink:href="#path-31"></use>
                    </mask>
                    <g id="path232"></g>
                    <g id="g230" mask="url(#mask-32)" fill="url(#linearGradient-33)" fill-rule="nonzero">
                        <path d="M0,0 L0,0.194799995 C0,0.197466662 0,0.199599995 0,0.202133328 C0,0.202666662 0,0.203199995 0,0.203733328 C0,0.277199993 0.00199999995,0.349066658 0.00573333319,0.41879999 C0.00573333319,0.419866656 0.00573333319,0.420933323 0.00573333319,0.421999989 C0.00573333319,0.422933323 0.00573333319,0.423999989 0.00613333318,0.425066656 C0.00613333318,0.427199989 0.00613333318,0.429199989 0.00613333318,0.431333323 C0.00613333318,0.431866656 0.00613333318,0.432399989 0.00613333318,0.432933323 C0.0462666655,1.14386664 0.26706666,1.69853329 0.617066651,2.06879995 L0.617066651,2.06879995 L0.617066651,2.06879995 L0.714533315,1.97093328 C0.26706666,1.56719996 0,0.893866644 0,0" id="path250"></path>
                    </g>
                </g>
                <path d="M15.1786663,43.8125322 C15.179733,43.8125322 15.1811996,43.8125322 15.1827996,43.8125322 C15.1811996,43.8125322 15.179733,43.8125322 15.1786663,43.8125322" id="path252" fill="#404040" fill-rule="nonzero"></path>
                <g id="g256-Clipped" transform="translate(13.914000, 32.172933)">
                    <mask id="mask-35" fill="white">
                        <use xlink:href="#path-34"></use>
                    </mask>
                    <g id="path258"></g>
                    <g id="g256" mask="url(#mask-35)" fill="url(#linearGradient-36)" fill-rule="nonzero">
                        <path d="M22.1239994,0 L2.77093326,10.9963997 C2.23439994,11.3005331 1.72666662,11.4447997 1.2745333,11.4447997 C0.81359998,11.4447997 0.411466656,11.2947997 0.0974666642,11.0119997 L-3.78956116e-15,11.1098664 L-3.78956116e-15,11.1098664 C0.0307999992,11.1421331 0.0619999984,11.1734664 0.0947999976,11.2030664 C0.0958666643,11.2041331 0.0974666642,11.2051997 0.0985333309,11.2062664 C0.40999999,11.486933 0.807866646,11.636933 1.26466664,11.6395997 L1.26466664,11.6395997 C1.2657333,11.6395997 1.26719997,11.6395997 1.26879997,11.6395997 C1.2709333,11.6395997 1.27239997,11.6395997 1.2745333,11.6395997 C1.72666662,11.6395997 2.23439994,11.495333 2.77093326,11.1910664 L22.2485328,0.124399997 L22.2479994,0.123999997 L22.1239994,0" id="path274"></path>
                    </g>
                </g>
                <path d="M57.1245319,39.129199 L59.7833318,39.129199 L58.4759985,42.7374656 L58.4317319,42.7374656 L57.1245319,39.129199 Z M54.8562653,35.9999991 L57.8729319,43.9999991 L59.0343985,43.9999991 L62.0515984,35.9999991 L60.9119985,35.9999991 L60.1411985,38.1682657 L56.7781319,38.1682657 L55.9953319,35.9999991 L54.8562653,35.9999991" id="path276" fill="#FFFFFF" fill-rule="nonzero"></path>
                <path d="M57.1245319,39.129199 L57.1245319,38.9958657 L59.9734652,38.9958657 L58.5693319,42.8707989 L58.4317319,42.8707989 L58.3379985,42.8707989 L56.9343986,38.9958657 L57.1245319,38.9958657 L57.1245319,39.129199 L57.2499986,39.0833324 L58.5573319,42.6921323 L58.4317319,42.7374656 L58.4317319,42.6041323 L58.4759985,42.6041323 L58.4759985,42.7374656 L58.3505319,42.6921323 L59.5931985,39.2625324 L57.1245319,39.2625324 L57.1245319,39.129199 L57.2499986,39.0833324 L57.1245319,39.129199 Z M54.8562653,35.9999991 L54.9806653,35.9530658 L57.9650652,43.8666658 L58.9421319,43.8666658 L61.8587985,36.1333324 L61.0062651,36.1333324 L60.2354652,38.301599 L56.6843986,38.301599 L55.9021319,36.1333324 L54.8562653,36.1333324 L54.8562653,35.9999991 L54.9806653,35.9530658 L54.8562653,35.9999991 L54.8562653,35.8666658 L55.9953319,35.8666658 L56.0890653,35.8666658 L56.8713319,38.0349324 L60.0473318,38.0349324 L60.8182651,35.8666658 L62.0515984,35.8666658 L62.2442651,35.8666658 L59.1265319,44.1333322 L57.8729319,44.1333322 L57.7806652,44.1333322 L54.6635986,35.8666658 L54.8562653,35.8666658 L54.8562653,35.9999991" id="path278" fill="#FFFFFF" fill-rule="nonzero"></path>
                <path d="M66.7557317,35.8213324 C65.578665,35.8213324 64.5917317,36.2197324 63.7947984,37.0171991 C62.9969318,37.8139991 62.5994651,38.808399 62.5994651,39.999999 C62.5994651,41.1917323 62.9969318,42.1859989 63.7947984,42.9827989 C64.5917317,43.7802656 65.578665,44.1791989 66.7557317,44.1791989 C67.961465,44.1791989 68.9421316,43.7431989 69.6947983,42.8718656 L68.9786649,42.1786656 C68.435465,42.8567989 67.6931983,43.1953323 66.7557317,43.1953323 C65.8833317,43.1953323 65.147865,42.9010656 64.5489317,42.3125323 C63.9483984,41.723999 63.6489317,40.9530656 63.6489317,39.999999 C63.6489317,39.0469324 63.9483984,38.2754657 64.5489317,37.6874657 C65.147865,37.0989324 65.8833317,36.8046657 66.7557317,36.8046657 C67.716665,36.8046657 68.5359983,37.1917324 69.2139983,37.9661324 L69.9291983,37.2515991 C69.5630649,36.8119991 69.1062649,36.4635991 68.5541316,36.2073324 C68.003065,35.9499991 67.403065,35.8213324 66.7557317,35.8213324" id="path280" fill="#FFFFFF" fill-rule="nonzero"></path>
                <path d="M66.7557317,35.8213324 L66.7557317,35.9546658 C65.6087984,35.9562658 64.6635984,36.3390658 63.8890651,37.1114657 C63.1155984,37.8849324 62.7343984,38.837999 62.7327984,39.999999 C62.7343984,41.161999 63.1155984,42.1150656 63.8890651,42.8885323 C64.6635984,43.6614656 65.6087984,44.0442656 66.7557317,44.0458656 C67.9297316,44.0437322 68.8630649,43.6281322 69.5937316,42.7849323 L69.6947983,42.8718656 L69.6021316,42.9677323 L68.8859983,42.2739989 L68.9786649,42.1786656 L69.0827983,42.2619989 C68.5171983,42.9713323 67.725065,43.3306656 66.7557317,43.3286656 C65.8535984,43.3297323 65.0765317,43.0197323 64.4551984,42.4078656 L64.4515984,42.4035989 L64.4557317,42.4078656 C63.8281317,41.7937323 63.5145317,40.9802656 63.5155984,39.999999 C63.5145317,39.0197324 63.8281317,38.205199 64.4557317,37.5921324 L64.4551984,37.5921324 C65.0765317,36.9802657 65.8535984,36.6702657 66.7557317,36.6713324 C67.753065,36.6697324 68.6171983,37.0791991 69.3145316,37.8781324 L69.2139983,37.9661324 L69.1197316,37.8718657 L69.8349316,37.1573324 L69.9291983,37.2515991 L69.8265316,37.3363991 C69.4734649,36.9125324 69.0338649,36.5770658 68.497865,36.3281324 C67.965065,36.0791991 67.385465,35.9551991 66.7557317,35.9546658 L66.7557317,35.8213324 L66.7557317,35.6879971 C67.420265,35.6879971 68.0411983,35.8202658 68.6103983,36.0863991 C69.1786649,36.3499991 69.6530649,36.7109324 70.0311982,37.1661324 L70.1093316,37.2593324 L69.3083983,38.060399 L69.2078649,38.1614657 L69.1139983,38.0541324 C68.4541316,37.3035991 67.680265,36.9395991 66.7557317,36.9379991 C65.9135984,36.9395991 65.2187984,37.2177324 64.6421317,37.7827991 L64.6421317,37.7827991 C64.0693317,38.3453324 63.7838651,39.073999 63.7822651,39.999999 C63.7838651,40.925999 64.0693317,41.653599 64.6421317,42.2171989 L64.6421317,42.2171989 C65.2187984,42.7822656 65.9135984,43.0603989 66.7557317,43.0619989 C67.6619983,43.0598656 68.3541316,42.7421323 68.8745316,42.0953323 L68.9661297,41.9806656 L69.7874649,42.7759989 L69.8781316,42.8635989 L69.7958649,42.9587989 C69.0207983,43.8587989 67.9931983,44.3139989 66.7557317,44.3125358 C65.5489317,44.3135989 64.5202651,43.8983989 63.7005317,43.0770656 C62.8775984,42.2573323 62.4650651,41.220799 62.4661297,39.999999 C62.4650651,38.779199 62.8775984,37.7426657 63.7005317,36.9223991 C64.5202651,36.1015991 65.5489317,35.6869324 66.7557317,35.6879971 L66.7557317,35.8213324" id="path282" fill="#FFFFFF" fill-rule="nonzero"></path>
                <path d="M74.1411981,35.8213324 C73.2609315,35.8213324 72.5489315,36.1119991 72.0005315,36.6926657 C71.4535982,37.2734657 71.1802649,38.0338657 71.1802649,38.9718657 L71.1802649,43.9999989 L72.2078649,43.9999989 L72.2078649,38.9270657 C72.2078649,38.2942657 72.3729315,37.7822657 72.7051982,37.3906657 C73.0359982,36.9999991 73.5150648,36.8046657 74.1411981,36.8046657 C74.7661315,36.8046657 75.2453315,36.9999991 75.5759981,37.3906657 C75.9083981,37.7822657 76.0734648,38.2942657 76.0734648,38.9270657 L76.0734648,43.9999989 L77.1021314,43.9999989 L77.1021314,38.9718657 C77.1021314,38.025999 76.8354647,37.2639991 76.3026648,36.6874657 C75.7702648,36.1093324 75.0489315,35.8213324 74.1411981,35.8213324" id="path284" fill="#FFFFFF" fill-rule="nonzero"></path>
                <path d="M74.1411981,35.8213324 L74.1411981,35.9546658 C73.2901315,35.9567991 72.6218649,36.2306658 72.0973315,36.7843991 L72.0978649,36.7843991 C71.5765315,37.3385324 71.3145316,38.058799 71.3135982,38.9718657 L71.3135982,43.8666656 L72.0745315,43.8666656 L72.0745315,38.9270657 C72.0739982,38.2718657 72.2473315,37.7239991 72.6030649,37.3041324 C72.9614648,36.8797324 73.4890648,36.6697324 74.1411981,36.6713324 C74.7926648,36.6697324 75.3197315,36.8797324 75.6781314,37.3046657 C76.0338648,37.7239991 76.2073314,38.2718657 76.2067981,38.9270657 L76.2067981,43.8666656 L76.9687981,43.8666656 L76.9687981,38.9718657 C76.9682647,38.0505324 76.7114647,37.3275991 76.2046648,36.7781324 C75.6978648,36.2297324 75.0213315,35.9562658 74.1411981,35.9546658 L74.1411981,35.8213324 L74.1411981,35.6879963 C75.0759981,35.6869324 75.8426648,35.9895991 76.4010648,36.5973324 C76.9593314,37.2010657 77.2363981,38.0021324 77.2354671,38.9718657 L77.2354671,44.1333322 L76.0734648,44.1333322 L75.9401314,44.1333322 L75.9401314,38.9270657 C75.9395981,38.3166657 75.7822648,37.8411991 75.4745314,37.4765324 C75.1707981,37.1202657 74.7401315,36.9395991 74.1411981,36.9379991 C73.5411982,36.9395991 73.1103982,37.1202657 72.8067982,37.4765324 C72.4983982,37.8411991 72.3417315,38.3166657 72.3411982,38.9270657 L72.3411982,44.1333322 L71.1802649,44.1333322 L71.0469286,44.1333322 L71.0469286,38.9718657 C71.0458649,38.008799 71.3306649,37.2083991 71.9035982,36.6015991 C72.4754649,35.9931991 73.2322648,35.6869324 74.1411981,35.6879963 L74.1411981,35.8213324" id="path286" fill="#FFFFFF" fill-rule="nonzero"></path>
                <polyline id="path288" fill="#FFFFFF" fill-rule="nonzero" points="78.7557314 35.9999991 78.7557314 43.9999989 79.7833313 43.9999989 82.5655979 39.129199 82.6098646 39.129199 85.3926645 43.9999989 86.4197312 43.9999989 86.4197312 35.9999991 85.3926645 35.9999991 85.3926645 40.748399 85.4369312 42.0901323 85.3926645 42.0901323 82.8901313 37.6978657 82.2859979 37.6978657 79.7833313 42.0901323 79.7390647 42.0901323 79.7833313 40.748399 79.7833313 35.9999991 78.7557314 35.9999991"></polyline>
                <polyline id="path290" fill="#FFFFFF" fill-rule="nonzero" points="78.7557314 35.9999991 78.8890647 35.9999991 78.8890647 43.8666656 79.7057313 43.8666656 82.4885313 38.9958657 82.6098646 38.9958657 82.6874646 38.9958657 85.4697312 43.8666656 86.2863978 43.8666656 86.2863978 36.1333324 85.5259979 36.1333324 85.5259979 40.7469323 85.5702645 42.0854656 85.5745312 42.2234656 85.3926645 42.2234656 85.3150645 42.2234656 82.8125313 37.8311991 82.3635979 37.8311991 79.860398 42.2234656 79.7390647 42.2234656 79.6010647 42.2234656 79.649998 40.746399 79.649998 36.1333324 78.7557314 36.1333324 78.7557314 35.9999991 78.8890647 35.9999991 78.7557314 35.9999991 78.7557314 35.8666658 79.7833313 35.8666658 79.9166647 35.8666658 79.9166647 40.7510656 79.872398 42.0942656 79.7390647 42.0901323 79.7390647 41.956799 79.7833313 41.956799 79.7833313 42.0901323 79.667198 42.0239989 82.2083979 37.5645324 82.8901313 37.5645324 82.9677313 37.5645324 85.5083979 42.0239989 85.3926645 42.0901323 85.3926645 41.956799 85.4369312 41.956799 85.4369312 42.0901323 85.3035979 42.0942656 85.2593312 40.7530656 85.2593312 40.7510656 85.2593312 35.8666658 86.4197312 35.8666658 86.5530645 35.8666658 86.5530645 44.1333322 85.3926645 44.1333322 85.3150645 44.1333322 82.4942646 39.1953324 82.6098646 39.129199 82.6098646 39.2625324 82.5655979 39.2625324 82.5655979 39.129199 82.6811979 39.1953324 79.860398 44.1333322 78.7557314 44.1333322 78.622398 44.1333322 78.622398 35.8666658 78.7557314 35.8666658 78.7557314 35.9999991"></polyline>
                <path d="M91.960931,40.223999 L93.6822643,40.223999 C94.114531,40.223999 94.460931,40.368799 94.721331,40.658799 C94.981731,40.949999 95.1119976,41.2693323 95.1119976,41.6197323 C95.1119976,41.9697323 94.981731,42.2906656 94.721331,42.5806656 C94.460931,42.8718656 94.114531,43.0171989 93.6822643,43.0171989 L91.960931,43.0171989 L91.960931,40.223999 Z M91.960931,35.9999991 L90.9338644,35.9999991 L90.9338644,43.9999991 L93.6598643,43.9999991 C94.336931,43.9999991 94.924531,43.7750656 95.4193309,43.3245323 C95.9150643,42.8739989 96.1630643,42.3051989 96.1630643,41.6197323 C96.1630643,40.9349323 95.9150643,40.367199 95.4193309,39.9166657 C94.924531,39.465599 94.336931,39.2401324 93.6598643,39.2401324 L91.960931,39.2401324 L91.960931,35.9999991" id="path292" fill="#FFFFFF" fill-rule="nonzero"></path>
                <path d="M91.960931,40.223999 L91.960931,40.0906539 L93.6822643,40.0906539 C94.143731,40.0890657 94.5359976,40.2505323 94.8207976,40.5697323 L94.8207976,40.5697323 C95.098931,40.8797323 95.2463976,41.235999 95.2453367,41.6197323 C95.2463976,42.0035989 95.098931,42.3603989 94.8207976,42.6697323 L94.8207976,42.6697323 C94.5363976,42.9901323 94.143731,43.1521323 93.6822643,43.150544 L91.960931,43.150544 L91.8275977,43.150544 L91.8275977,40.0906539 L91.960931,40.0906539 L91.960931,40.223999 L92.0942644,40.223999 L92.0942644,42.8838656 L93.6822643,42.8838656 C94.0854643,42.8817323 94.3854643,42.7535989 94.6218643,42.4917323 L94.6223976,42.4917323 C94.8639976,42.2202656 94.9775976,41.936399 94.9786643,41.6197323 C94.9775976,41.3030656 94.864531,41.0202656 94.6218643,40.7478656 L94.6223976,40.7478656 C94.3859976,40.486399 94.0854643,40.358799 93.6822643,40.3573323 L91.960931,40.3573323 L91.960931,40.223999 L92.0942644,40.223999 L91.960931,40.223999 Z M91.960931,35.9999991 L91.960931,36.1333324 L91.0671977,36.1333324 L91.0671977,43.8666658 L93.6598643,43.8666658 C94.3078643,43.8655989 94.8567976,43.6546656 95.329731,43.2254656 L95.329731,43.2254656 C95.7994643,42.7969323 96.0275976,42.2734656 96.0297309,41.6197323 C96.0275976,40.967199 95.7994643,40.4442657 95.329731,40.0150657 L95.329731,40.0150657 C94.8567976,39.5854657 94.3078643,39.3745323 93.6598643,39.3734657 L91.960931,39.3734657 L91.8275977,39.3734657 L91.8275977,35.9999991 L91.960931,35.9999991 L91.960931,36.1333324 L91.960931,35.9999991 L92.0942644,35.9999991 L92.0942644,39.106799 L93.6598643,39.106799 C94.3666643,39.1057324 94.992131,39.3458657 95.5087976,39.8182657 L95.5087976,39.8182657 C96.0311976,40.2901323 96.2978643,40.9026656 96.2964036,41.6197323 C96.2978643,42.3374656 96.0311976,42.9505323 95.5087976,43.4229322 L95.5087976,43.4229322 C94.992131,43.8947989 94.3666643,44.1343989 93.6598643,44.1333358 L90.8005311,44.1333358 L90.8005311,35.8666658 L91.960931,35.8666658 L92.0942644,35.8666658 L92.0942644,35.9999991 L91.960931,35.9999991" id="path294" fill="#FFFFFF" fill-rule="nonzero"></path>
                <polyline id="path296" fill="#FFFFFF" fill-rule="nonzero" points="102.130264 43.0171989 98.4869309 43.0171989 98.4869309 40.4806657 101.772397 40.4806657 101.772397 39.5193323 98.4869309 39.5193323 98.4869309 36.9827991 102.130264 36.9827991 102.130264 35.9999991 97.4593309 35.9999991 97.4593309 43.9999989 102.130264 43.9999989 102.130264 43.0171989"></polyline>
                <polyline id="path298" fill="#FFFFFF" fill-rule="nonzero" points="102.130264 43.0171989 102.130264 43.1505323 98.3535975 43.1505323 98.3535975 40.3473323 101.639064 40.3473323 101.639064 39.6530657 98.3535975 39.6526657 98.3535975 36.8494657 101.996931 36.8494657 101.996931 36.1333324 97.5926642 36.1333324 97.5926642 43.8666656 101.996931 43.8666656 101.996931 43.0171989 102.130264 43.0171989 102.130264 43.1505323 102.130264 43.0171989 102.263597 43.0171989 102.263597 43.9999989 102.263597 44.1333322 97.3259976 44.1333322 97.3259976 35.8666658 102.263597 35.8666658 102.263597 36.9827991 102.263597 37.1161324 98.6202642 37.1161324 98.6202642 39.385999 101.905731 39.385999 101.905731 40.4806657 101.905731 40.613999 98.6202642 40.613999 98.6202642 42.8838656 102.263597 42.8838656 102.263597 43.0171989 102.130264 43.0171989"></polyline>
            </g>
        </g>
    </g>
</svg>