<svg width="34" height="34" viewBox="0 0 34 34" xmlns="http://www.w3.org/2000/svg">
    <path d="M31.273 0H2.904C1.354 0 0 1.116 0 2.647v28.43c0 1.542 1.355 2.914 2.904 2.914h28.36c1.558 0 2.727-1.381 2.727-2.913V2.648C34 1.115 32.822 0 31.273 0zM10.536 28.333h-4.87v-15.14h4.87v15.14zM8.27 10.891h-.036c-1.558 0-2.567-1.16-2.567-2.612 0-1.48 1.036-2.612 2.63-2.612 1.593 0 2.567 1.124 2.602 2.612 0 1.452-1.009 2.612-2.63 2.612zm20.063 17.442h-4.87v-8.278c0-1.984-.708-3.338-2.47-3.338-1.346 0-2.143.912-2.497 1.797-.133.319-.168.753-.168 1.195v8.624h-4.87v-15.14h4.87V15.3c.708-1.01 1.815-2.462 4.392-2.462 3.196 0 5.613 2.108 5.613 6.65v8.845z" fill="#FFF" fill-rule="nonzero"/>
</svg>
