<svg width="19" height="23" viewBox="0 0 19 23" xmlns="http://www.w3.org/2000/svg">
    <g fill="#000" fill-rule="nonzero">
        <path d="M12.585 19.947c0 1.143-.617 2.017-1.62 2.588a3.27 3.27 0 0 1-3.235 0c-1.003-.571-1.62-1.445-1.62-2.588M9.347 0c.883 0 1.594.537 1.594 1.364 0 .52.018.908.35 1.007 2.815.84 4.621 2.807 4.621 5.362v4.293c0 1.968.815 2.366 1.842 3.118 1.486 1.088 1.146 3.354-.559 3.352H1.5c-1.705.002-2.044-2.264-.558-3.352 1.025-.752 1.842-1.15 1.842-3.118V7.733c0-2.555 1.805-4.522 4.62-5.362.33-.1.35-.487.35-1.007C7.753.537 8.465 0 9.347 0z"/>
    </g>
</svg>
