<svg width="30" height="24" viewBox="0 0 30 24" xmlns="http://www.w3.org/2000/svg">
    <path d="M24.24.765a56.547 56.547 0 0 0-18.54 0C2.19 1.5 0 3.765 0 6.72v10.5c0 3 2.19 5.235 5.76 6 3.053.514 6.144.775 9.24.78 3.105 0 6.206-.257 9.27-.765 3.48-.66 5.73-3 5.73-6v-10.5c0-2.985-2.25-5.325-5.76-5.97zm-4.35 11.91-7.5 4.5a.718.718 0 0 1-.39.105.857.857 0 0 1-.375-.09.78.78 0 0 1-.375-.69v-9a.78.78 0 0 1 .375-.66.81.81 0 0 1 .765 0l7.5 4.5a.765.765 0 0 1 0 1.29v.045z" fill="#FFF" fill-rule="nonzero"/>
</svg>
